<mxfile host="app.diagrams.net" agent="Mozilla/5.0 (Macintosh; Intel Mac OS X 10_15_7) AppleWebKit/537.36 (KHTML, like Gecko) Chrome/138.0.0.0 Safari/537.36" version="28.0.6" pages="2">
  <diagram name="代码工程软件设计方案" id="ynN5xWUnwN7hnNTEBYjk">
    <mxGraphModel dx="1426" dy="790" grid="1" gridSize="10" guides="1" tooltips="1" connect="1" arrows="1" fold="1" page="1" pageScale="1" pageWidth="827" pageHeight="1169" math="0" shadow="0">
      <root>
        <mxCell id="0" />
        <mxCell id="1" parent="0" />
        <mxCell id="lrv6MyQHk7P-8HszDG4L-4" value="" style="rounded=0;whiteSpace=wrap;html=1;fillColor=none;" vertex="1" parent="1">
          <mxGeometry x="80" y="60" width="760" height="640" as="geometry" />
        </mxCell>
        <mxCell id="lrv6MyQHk7P-8HszDG4L-1" value="" style="rounded=0;whiteSpace=wrap;html=1;movable=0;resizable=0;rotatable=0;deletable=0;editable=0;locked=1;connectable=0;fillColor=none;" vertex="1" parent="1">
          <mxGeometry x="100" y="110" width="640" height="540" as="geometry" />
        </mxCell>
        <mxCell id="lrv6MyQHk7P-8HszDG4L-2" value="MOR类" style="text;html=1;align=center;verticalAlign=middle;whiteSpace=wrap;rounded=0;" vertex="1" parent="1">
          <mxGeometry x="100" y="110" width="60" height="30" as="geometry" />
        </mxCell>
        <mxCell id="lrv6MyQHk7P-8HszDG4L-5" value="MORLinear" style="text;html=1;align=center;verticalAlign=middle;whiteSpace=wrap;rounded=0;" vertex="1" parent="1">
          <mxGeometry x="80" y="60" width="60" height="30" as="geometry" />
        </mxCell>
        <mxCell id="lrv6MyQHk7P-8HszDG4L-6" value="" style="rounded=0;whiteSpace=wrap;html=1;" vertex="1" parent="1">
          <mxGeometry x="170" y="270" width="240" height="220" as="geometry" />
        </mxCell>
        <mxCell id="lrv6MyQHk7P-8HszDG4L-7" value="Teal" style="text;html=1;align=center;verticalAlign=middle;whiteSpace=wrap;rounded=0;" vertex="1" parent="1">
          <mxGeometry x="170" y="270" width="60" height="30" as="geometry" />
        </mxCell>
        <mxCell id="lrv6MyQHk7P-8HszDG4L-8" value="&lt;div style=&quot;color: rgb(59, 59, 59); background-color: rgb(255, 255, 255); font-family: Menlo, Monaco, &amp;quot;Courier New&amp;quot;, monospace; line-height: 18px; white-space: pre;&quot;&gt;&lt;span style=&quot;color: #267f99;&quot;&gt;ActivationModule&lt;/span&gt;&lt;/div&gt;" style="rounded=0;whiteSpace=wrap;html=1;" vertex="1" parent="1">
          <mxGeometry x="180" y="310" width="120" height="60" as="geometry" />
        </mxCell>
        <mxCell id="lrv6MyQHk7P-8HszDG4L-9" value="&lt;div style=&quot;color: rgb(59, 59, 59); background-color: rgb(255, 255, 255); font-family: Menlo, Monaco, &amp;quot;Courier New&amp;quot;, monospace; line-height: 18px; white-space: pre;&quot;&gt;&lt;span style=&quot;color: #795e26;&quot;&gt;histogram&lt;/span&gt;&lt;/div&gt;" style="text;html=1;align=center;verticalAlign=middle;whiteSpace=wrap;rounded=0;" vertex="1" parent="1">
          <mxGeometry x="330" y="310" width="60" height="30" as="geometry" />
        </mxCell>
        <mxCell id="lrv6MyQHk7P-8HszDG4L-10" value="&lt;div style=&quot;color: rgb(59, 59, 59); background-color: rgb(255, 255, 255); font-family: Menlo, Monaco, &amp;quot;Courier New&amp;quot;, monospace; line-height: 18px; white-space: pre;&quot;&gt;&lt;div style=&quot;line-height: 18px;&quot;&gt;&lt;span style=&quot;color: #001080;&quot;&gt;activations&lt;/span&gt;&lt;/div&gt;&lt;/div&gt;" style="text;html=1;align=center;verticalAlign=middle;whiteSpace=wrap;rounded=0;" vertex="1" parent="1">
          <mxGeometry x="330" y="340" width="60" height="30" as="geometry" />
        </mxCell>
      </root>
    </mxGraphModel>
  </diagram>
  <diagram id="EB2fOjWa9Bp4aALDH5OY" name="直方图理解">
    <mxGraphModel dx="1426" dy="790" grid="1" gridSize="10" guides="1" tooltips="1" connect="1" arrows="1" fold="1" page="1" pageScale="1" pageWidth="827" pageHeight="1169" math="1" shadow="0">
      <root>
        <mxCell id="0" />
        <mxCell id="1" parent="0" />
        <mxCell id="TIX_jKq0jUNadhzqx4YU-2" value="" style="shape=image;verticalLabelPosition=bottom;labelBackgroundColor=default;verticalAlign=top;aspect=fixed;imageAspect=0;image=data:image/png,iVBORw0KGgoAAAANSUhEUgAAAlAAAAE2CAIAAAAhxTvIAAAAAXNSR0IArs4c6QAAAERlWElmTU0AKgAAAAgAAYdpAAQAAAABAAAAGgAAAAAAA6ABAAMAAAABAAEAAKACAAQAAAABAAACUKADAAQAAAABAAABNgAAAADpGnaEAABAAElEQVR4Aey9d3MjSZIvCK01QK1ZuqqrRbWYVjuze/vm3pndu7O7b7Af6v57ZmvPds6ePXu7t1rO9IhW06JaVpckWSSLElTQWt4v4SyvqEwABECAJIDIqUFHRnh4uP8i6Z4RGeGhr1arOnlJBCQCEgGJgERg0BEwDLqCUj+JgERAIiARkAgoCEiHJ58DiYBEQCIgERgKBKTDG4pulkpKBCQCEgGJgHR48hmQCEgEJAISgaFAQDq8oehmqaREQCIgEZAISIcnnwGJgERAIiARGAoETHW1rFQqmUymXC7r9XqTyYTfumQyUyIgEZAISAQkAueFALbVlUol/BqNRpvNBm/VXJL6xYeHhx9//HEkEjEYDE6n80QuzduQpRIBiYBEQCIgEeg6AhiVYWxWLBbHxsbu3LkzNTXV3FvVd3ibm5u/+tWvVlZWIJ/VaoXbk4O8rneVZCgRkAhIBCQCp0EAk5H5fB5u7/bt216vF26vE4eXTqfX1taePHkCdqeRRtaVCEgEJAISAYlArxFwu92JROJEh1V/hOdwODAlChEDgcC7774Lt4lBXq8llvwlAhIBiYBEQCLQOgJwcp9//vnOzo7FYsFk5IkzkfUdHrwlBoaoDFf3F3/xF2+++abZbG5dCEkpEZAISAQkAhKBXiOAmcjd3V04PKxYwUXjtCaN1nd4qEZDOvi5kZGR6elp+M8mXGSRREAiIBGQCEgEzhiBbDaLgR0axfCslWlIOVF5xh0km5MISAQkAhKB80FAOrzzwV22KhGQCEgEJAJnjIB0eGcMuGxOIiARkAhIBM4HAenwzgd32apEQCIgEZAInDEC9RetnLEQsjmJwJAgUCiVK9WKqbYqTMbrG5JOl2peHASkw7s4fSElGWQEqlXdXjK1cRTLlYp+h33K5/Ha7UaD9HqD3OlSt4uGgHR4F61HpDyDiUAknfl8Zf3+zl6uWPLZbdcnRt6amx73uLABaDAVllpJBC4eAtLhXbw+kRINHAKYyfxxO3z32VY4nqpUq+FECqO9ZL7wn29cGXE7B05dqZBE4IIiIB3eBe0YKdZgIAD3ls4XHu8dfLW2cZjM4BZ6lSuVo1Tmy6cbxVLl7fmphZDfYTafGBVpMACRWkgEzhEB6fDOEXzZ9GAiUKpUsoUSvtUhlG0sm1/eP/x+Y2cjGi+Uy6ww/F4il/94aXUvkXx3cebqaMjnsFuwmgUnkzCRTEgEJAJdRUA6vK7CKZkNPQL4RLcRja0eRDBvmSsUo8ncxn78KJ4tFioVHFRZ0eGwSoBkMOodfqPZZljaO4xnc6sH0fmgz++0Oy0Ws7KGUw/P57VbHRYLjuYSQUXtUqWs14EAY8KXikQymZYISAS0CEiHp8VE5kgE2kAgWygepjKJXA51HFbL5lH825WdR6uHu3upVLyYT1by6XIhWy3lKqUCjmfWKbOaFZ3FZbj8ocs3bS7pK9uxxFE682TvAN7ObjIbynqr1Wi1mqb8nnGPe8LrxqpOq8kI9wZnuRlNbEXj8HSzAd+Y22UyyjUvbXSWJB1yBKTDG/IHQKrfKgKYkIyksxhWYY2lGe5Hp7iuzUj8YXh//TCKonyqrE8al5ejq6vxyF4uHS3nEmXFzxWrFfi5crVaxvBOV/u/zhkwTb9q11WPDyHBuHA3noQohWRl64esvqL3jJsnZhyTU67ZkHfC65kP+tHqTjzxYGd/MxID5UIo8POr8wtBP0aEreog6SQCw42AdHjD3f9S+xYQgJPK5Avfb+083j1AVPab46M3J0bxve2nnfDd9e2l3cO9nXR4JRd5VkjtlqPhfDZZrsDJlXWVSlWnzF/Wucx646TfY7Pq8uWiSBILF5c+TaaPSs6gyTMW989YxhbtY7P2+Un4WROcYjyTw7dBeM39ZArDyvcWZ29Pjbus8jCTOiDLLImACgHp8FSAyFuJwEsIIDTKbiJ5f3vvs6frO7EkPNjaYWT1MIJx1Y9bu/BAxWJ5bzX78DfJ6LNCuSQ6r5f4YBJSb8D/jr+7uVzma5Mh56R+J5FI5QvYt4CGMGSM7xazsXImqvw7WMlbnFn/dCYwb12ag/MzO3wmk02P739gnS+Vf9jcjWWyxXLl1sSo12EzyS19L0EubyQCagSkw1MjIu8lAowApiExi/iHpTW4Fuwcp00FmMaE58MYC7fwb4obMxswklNuhMto0tvtJpvDaLObLDZ8kzNYbUazBStS4Pp0I+P2iXHn1JRzPODCoC2aySVzuXyxfG8/XshUmE0hXdl7kj9cLbhGTIE5S3DeEpi1eMbMVpfBYFLc3lY08dvHK1j28vrMBAaMGHdaTSbVOhfmJhMSgWFGAH+v0uEN8wMgdW+GAIZc60fRu+tb3z3biWaz+GvB7CO8GjwZZiu5JoZu3gmTe8wU3yniQ53ZavAFrKFRW3DEFhq3B0JWr9/q9locThMcHpakYHwGTwUXODnjctrNLodlwufGXr1MoVgoltemcsnZysFuLpMqlsvHLhTtgnlyv4Qxn2/SPHLJGlq0YsGL1WXEx8H1o1ixVE7m8nB4bpv18mhQLmbh3pEJiYCIgHR4IhoyLRFQEICfwagLyybh7VYOIvFcFp4sdVTaX86ZLIbx6zYMsESkXAHz1CWnIWn0e22Tc078m55zj47b3V6z3WFSRnhWo9mMkaBY6UUaKy0xIYl/8Kb/23+Zv3o5sPUsubWWWlmK721livlj54pdDamDEqY6o1vF/eX8yBXrxA0b3J7JaggnU6nVDexksFlMb6enf3F1Ieh0vGhApiQCEoHaqejS4ckHQSJwjACmKLHBAAO7fKmE73PfbmyH40l8XcunKwdP81v3snuPc9g8Z/caQ4sW+pDmsllG3U6P3XrLo8+/WxkZdYxN2Z0uszJ7qXg4Zdax9QtDv2u3fPOXPbls6Wg/93Qpvvww9uheZO1xIpXAMhiFE9welrRk4+XIRuHwaX7ytm3yFYczaIyVlX0R+ozuO/0ORHp1esJttciNeq2DLymHAQHp8Iahl6WOJyOghLvcCv+0HcYOATg8TGbiw1ghX0ntl3YeZDe+y0Q3C6V8FTsN9p7k3KMmp880HfDMBn2TfjfcnvESObfTuhijyeDAP6cpELJdvuF778/G4fN++vbowXdHy49i8aMCTavC7cHnwQcnD0qY2LR57OSAMUaEk/7d49V4Nv/O/HTQ5ZDf807ue0kxNAhIhzc0XS0VbYoAPNxvHi2v7B8hMBgIq+VqNlE5XM1v/ZAJP8plYmUaYBUzlYPlPOYSR0YcN6dG4fN6d9yB8nXQa33rvbGbrwZXPoj++0dr9785OtwoZKMluF5ljUxVZ7bpzQ7luyArh/2CKwdH+Ojod9jctins3uMimZAIDDkC8o9hyB8Aqb6CAHa2/bSzhwWZ5O3gTmLbhZ372Z2fctEtZWDHMMG7mO16bCBQ3IndajiTnQAY8N16LXhkTBnGKjvLmYOl3OF6IRMpG8366dccWLeJBEtIiUgq89P23pjHjYAsZhmNRYWOvB1WBKTDG9ael3o/RwCf7jaOok8PjhDxGWOmXKq8v5THHOb+kxcDO9BiG4Bvyjx2zTp+0+6fsAbdDiXc13Mmvf4vxpHTo569KylbUI/NCVi0gnGnzWWYetVuc9WJtAIX/WBnD5sF//z6pWl/D4ehvVZc8pcIdBEB6fC6CKZk1X8IwDEgZMnnT59hdx2Gd+lI6dk3mc3v8cWuiKhgyrRh7cJCFSzOnH7DHlywuvymyZB7MuC2nu1sIT4WpvOhFWPEYs+6R8xwe9gCgQhkqsWfkDkTQXzpaslXuVvewmc8H5aA2m391zdSYolAtxGQDq/biEp+/YMAvoPtJdN/eLL2/cZuLJWL7RbWvkxv3M3A7SEwGF0mi94zYZ5+zT77pgM7vh0OE0KCXR4LjHicvft6VxdCp9VyY3IE3+Qe7hxEjVm7qxZOWqfsfxfpsaxm/W4aGxgmX7FXruq+XttCCJeQC7sU9JjbRExOHDkrY7KIiMn08CAgHd7w9LXUVI0Azij4eGnts5Vnh5HM4Vp+/cv01o+IAX287w1rRqwe4+gV69ybjokbdo/fjEAmkz739cmRkNtxxt6ORMeYcmHEjzRCveA7IlzgfiKFs2QRXYwIcCBD+HHu2dcZhCiLbRexkjOfqezFk06bEmwTM5y3p8d+ef3yuNctV28SYvJ3kBDAKywOoSSNlCh+SoyHly7p8F6CQ94MAwLYeIDIJtAUo5+v1jYPDjPbP2UxtjtYzhVzx6MlIwZ2Y+bJ2/aZ1+2Ti46Q3x7yOLE3fMzj8jtt5+LtqGsUnzcaGPW4cOuwmHdiiaXw0V48hdCa+GtHQJZndxVvh4U2+M4H542N6oU7Fd9ECRqhyjfrpbmA3+uw185YJ5byVyIwCAjA1dXWLh/rgjTdiivLpMMbhJ6WOrSOQKZQeLh7gADQmAjExrtoOptLlncfZrGJm72dxWEYuWyZueO49LonNG7D5zqs+wi4cCQ5xkhtbiZvXbKWKbFYxuqyE/lM0If4mTgrffMogeBk2ThCsZRwGpFyVXXwf6v5NM4tmn/HiVCcOG8WNPe2w3jxdVutcN7Yog6ViJX8lQj0LwLk2yA/jer4FjlwhLXBnvLCJx1e/3axlLwNBPLFUjyXR+jmcCL5yfLa2mEUfxKw/theB/eGpR9WFxxeBZvtbG7j1Ku2uXecl255rs+Hgi47FmQilso5juqa6InPcgjFifnJdK4IHb2TZnxrrFYycHV07hAWsGx8m0EQ6ksfukYuW/U23ePwwW48ASjmA/7/9daVSa9bO/PTpEVZJBG4mAjgMcZgjh5m+sXfOC5IS7/IlA7vYvadlKqbCGAYh1Bhq4dROC2cIff0IIJQy9yAzWOce8uRi5fXv84Yzbq5t50YD8Fz4PiBqxNBbLYzKqf6MPmFS0ApzLXarViuqXeFzJc+cNk9xqefp4/W87Q/PZeo4NskDmEol9zj12xVHQZ9yoxuOJ6aDXpxnDqmRi+cVlIgiUCbCJCTEyux20NmzffJ0xJEeGR6EBHAZoPHewcfPX66HYuXcSKr5oIzw+c6+Am8CyIo5dybThy+irX+DqsZR+30xYJGk9GIEZuhNp2DHRTzbzutDsPyZ3p8xkNoGOgFz7fzIIcxXzlfHb+BUxWUIxuyxeL3m7vXx0elw9M8FDKjbxDg0VtdieHzcPFKFjnCq4uSzBwcBDCawQQmTrMjb4dJSzg95UPcy4M2/6zl+p+7Mdqz2OE4dPBzbhw90CcxSjCxianXsN1SyVQgucdjDb3nsLtMT5yJ3Yc5rNVU4qJVdThaD9st8KkSIacdPmXg+uwohsEuPOJFHsIOzrMoNTknBDDVST5POrxz6gHZ7FkhgDWZiVwee9HQIIY4iAGNNz7PuMkMxyZcsPj+SYvPYceIEJffiU93zn5xeJhyxe5AbE7AFgWMSkc8Dnh3bKLA8egYzG19n00dKlvRoe7RWqFaTpWLlek3HE6/EWGynx5GEDgb+9OxVw91BUhkUiIwOAiQz5PP9+D0qNSkLgIYvijT91isVVb2qK1+kcayxIX3XDhG1WR9McrDaG7c67o0FsDxQPgXcNrxcetCf7t7WVt8a8R2+JmAF8tIbRYzNIanT+bzOjMCTBvWv04n9xSfh3+RzYKSqFQx82n0Gz5feWY3m6b93j+9ujirVH/pPeDlRuSdRODCIYD3V8hEE5vNhYPPkw6vOUSytL8RwNhlC4fqYGt2sRJ+mHv8UeJgBSM8ZahnsekxjYkImYhdgm1tox4nYndhoINSuEe4jf4y/fijx64J/OMOmwv6cIwtDkNHaGksxnn6WTqxV0JcFhwthNDYK5/gHUC/+K5zWxfHhCb282F0Cx+POGTMQSYkAn2EQCs+r28cHpTBpXx/rPnzPuoGKeq5IJAtFDFZh69397fDq+Ho1uP0o98k9pby5YIys4ed5q6QyREwjYzZMarDP8xh9sX6lNbB9Dltt6ZGMUhdNUWM7+nh1Z5+lno+ztMhcbiSn7ptw2dLePh0ofj12iaI312YQeyxPhratg6IpBxsBOAgTlSwPxxezdkpylBCur0T+3XICbAw8WF4/zcPV3C+XSZT2l/JL/0+hVPLydvhlclkVSbu7GbzlfEgjrXDCa4DiRh2ECIQGrYbYgLz0vs6g1G3+sc0tuhBWd+0ZfymslyTFd+OJX7zcBm72j+8ND+ogLCyMjGQCJzo8/rD4an6Rro9FSDyVoVAtlj6aSuMM12zudLBSm7lkxSOKadAKvB2dp8RUVSwtfzKvB8Oz2l9MQ2o4jMAt17l214Qa3aqutTiezpMb+J7HiYz599xzLzhsDpfODwoixWb93f2Xpkalw5vALp+CFVg19BI9/5weBjSsevmNOsmJzkb9e5w5mN4txmJ7cST+IB3tJZf+SyFo+OwHU3ZjqDT2bwGxCJZfN/lnTBjWzks+2A/P2aTcSbgyRYKiWy+6K7M3sHBtUbsuwgtWJBQfR8AQoepDCK2DOeTI7XuXwT4r5g8Bd+qNOoPhwehoQBrQmm6lW5P1aPyFib77voWVmHsr+aW/pDafZBDYC2a3kcUMcXbfeDyTZox1sFylf5amdJZ50JLHI8QjimurOo2IiI2+EB9lbcj5nhLiGdzxXJZxtjsDG1Zq+sIsKknzvTgah9fLMIkAvYUWkn6z+FBGahKF3k7aMUJytfqKXOGBAGsVcFJ3z9t7W0+TT3+bQKLU+DtSHdsvJt723Hl526EDTMoZ8nplY3lda3+wIGFBSzXJkMYzq4dRJP5gjLBqblwtFA+WTaVc3hdQOwVnJyHbXnDAY8GC5lxYRBg284SIQdp/OJPmDMpIfo8EPAtk/WNw4PEUI+UZz2RwEWZpBITIJ+VlIkhQQCf7h7u7n+9urW6El/6OLl974W3s7oMOMT12p+7MbZDhBH4uYDLPjz7rDGQnQ54sfUCSq/uRw6TGYzkXjwVSnjNyt7j3P5KbvwGxn9bKH17fvrGxIjHZpV/Si+AkqmzRYDCo1Cb/BzCyFOOaPlZLjg5roUEanFF0PSfw4PQ0FPUoaaRdHvc40OawB/Bo939jx49/e5B+Mln8c3vszDihAW83dSr9qt/5vZNWPwuZSITaxHnR5AczMWZjZ4AhF65OhaE7j9uhCOpLM3zwnooByTdz658moo8KyT3S1jMWanu4HRcfOp7bXoca1kbMZT5EoHeIcB+iyw8N4RbLmLnx6VIwOexL+QEEfSTw4PEUJUUQELUUKUVFTGlilisKNMDg0ChVMJprj8u7S1/ldj8LpuN1QJI6nSIjTlxy4bDcXxTFovFeHU86Hc5LEaDz4kR3ktrFAcGiiaK0Pe8SAArWEopfNKrVsuFyv6T3NPPU0frBcSYRrxNk82A02KL1cp0YO9SKCAdXhM8ZVGPEMCTSZxhvbUGXBzGMaUoCdViv8hFfenwID2UZBSQxkUq0aStmENpyme1ZWLwEECQ6HA0tfZdcv2rdPLgOHQklmaMXbPhJITgvMVk0SMe9FTAE3I78brEz8/gQdFcI3yfuzQawKLN3FEci1Pwp4OhcDZeofPzitlK+EHWbNUjINnWWDxdKIzonM0ZylKJQO8QaPR3Kvq8Rq2zO2CCPnN4kBv6kw8jIETfxl4NRbi4CGlWWCYGEgFEfP5pey+WyWVi5VyqgliRtUdFF1ywXPq5a/SyDeM8nBi3OBpw2axDslClUUfjjEy/yz4T9CLiWjxbNlkMY1dt0a0i3F4+ofg/ALj1QxYrWoP++MaN+JjbZTUrhkL5o2rEVOZLBLqKAKw3+LXyxBENW3utFCKT/nN4rA8hQr/IZG/HBNBTVJXzZWLAEMC3KIQQ+2xlPVHIzbzuyCXK2/dy+MU55ld+4Zq8bpsYdY14nAgehuDICJQ8YOp3oA5c/qTPvRNNINRmXlf2TJgvve/EVkVlmU9twyJOFFr/KmP3RH87toq1rC6rBVvXEXIM/+R2hQ4Al1XOAAH2BU3auih//KJ/bu6oUKpydVBP6+2a6CyLBgkBeLuDZPrL1Y3deBKBkX0zFixOwXguul2ced0+ddvu99uuTYQWR2mRvRyiHHe+02bB6QrwfBtHcezlCMxZL/1JtZSv4ECJYlZ5uU5HSljG8nuncraC02PCF9HZgO+XN69Met1DPkQepD+fC64LTH1bgxbtRzuVgufv8ERXR8JxTiM3xj6P6BuRqVSVtwOGAMYcmJQLJ1JP9g4QEAvhj2GnsffUN2m59KEei1a802aHxzTmdU343LUtZdLbvXgE4LSm/B6croBT9DYj8aquPHrFWim6yyXd/lIOq1dAGtspPv4kobNUJ2/ZMcO5E0suhPxBp10uY3mBo0z1BgE28o18HvLFllv0i+fs8Ni3QXSSWFQD7hqZlK/SjcmktxORGZ40HoDH4cMfNncwmbmfSiVzBTriVXmQDDr3mNk9ik3TyrGoCyN+p3XA44d11u/42wm4HIgmilHybiyZ15fGrtswyCvlKlixSWtYsFEB8aYxYh69asvqi3CNt6fkRoXO8Ja1OkEAf+laFwBG5AK0RY3oqe3zd3iQA0Kz3JSA0LiaaAUyJuC6pJL8HQYEIpnsJ8tr2E+Wyhb0iA358qmlWFxhNCpbrW/PjI3i4PLh237Q4jOgfMzzeyjizBbGeZbyxE17PlUpZCuJXWWlK9ze/nLe4jRgL6N/xpLGboby8e7GFpuQZBKBDhBgR4C6qpFPzTkcD+9E489VxExV0+fp8MhjQSCtfCw6Skk91UgOBNLhqfpyqG4xsFvbi658F09Hy6FFi2fMjK1jhAC8ndNiGfe5Xp0dx4Gu8oNT8wfDbDRg1hfBxrAaZTsaT+uL06/bsdh1LZfGZ7xqRYeNCtiW7vAbMauJCCy0Xb05T1kqEWgRATbjoCezz+6AjTyKyAuoeKqcgqq07u35OzxWTyUf8nHxR0gkVOqhlMFCWlVd3g4wAni72ziIrd5PPviPBCKDTN62zb/jDM5ZsHUMQcOw2Q7TmJipwxHe0tu18hgApQm/G8tYvA7rs8OY2ZhdeKeKXQob32QQhAWnTOSSStruNUYWEVdajvBaAVXSnICA1oexPWdTj4SWjPgyzQnNvFx8ng7vZUnq30Er9nnQXHRs0uHVh2wIcnP50uqTxIPfxo7WCsWcYouxpN74S8/ogi3kcsyGvIsjAZ/Dhg1nQwBGd1SEzwNi1ydGcH7e2mHMqE8U368UUhVE38YID23gxWL1i/TGzWT+Q3l4UHcwH2YubNUJBDbmuBWNPN2KpUxPCfGX/KWqukiA9EV3eBCRfZ5WHwZC5QtVSsrbQUIA33aXVyLf/PZg51G2mFdsMb45JfZK2ECGvWXXpkKYzMQqFentOuh0m8U0E/LZa2t8SqVq6edVoKos2ixU8ZW0UqrGsTpIjDrdQRuyytAjwN4OBhwX4UGJRpacyU4J3nk6POgA9RppKCom+jxRc+IgUsr0QCIAJ7efTOEEc+w9KCQrv/unra8+CacTRTrT1e4xTr5in5h13JoZnQ55TEajHNl1/BiYDAbsLi+MlpPZfOFaOZ9W/iV2i4hEuvCe0zFt3EzEjGF90OnwO+w4XqnjhmTF4UQABp8Uh/XGpQJBm6MiaHQrsm1Eg/zzdHgsVis+D0CQSipiAqhjmFgGJMAZF+WAYVd4ivxlumMEopnspyvrX65uRhLZ3XvZ+/+e2NvIIgwkGJptesSGnnvTcfVSIORxyDggHYPMFXFI4JjXiSjbcH7GN/SFVPVoIw+Qx6/bje7qZ0/Xv9vcwWl57y7MTPo8CMAt/1IYOplojgDb2Jp9VXu75nXFUjbUnKDSEz/snafDg84kLn5P/JtpRHxiRRGmRmkIgEss5ZwTERRryXSPEFg7jPy4uXuYTIdXcg8+iYfXcyVll7kO57iGFqxX3nfPXnLNjnoxI9cjAYaNLfbpI+6o127DYhav1bZzkDI5dSarAUs0NyJxoIENeZF09tXpsVuTYxjqycVBw/aEnFLf09htNs6QQUy3YqvP2UA0cmN10WTiuqUdZ4qQUTcgh7lhuhmZlM+ZMnHGCOBsNpzTHdvFJujU/lKe4oBABu+E+dYvfG+8PTo36Rn3ujAiOWPBBrg5bM6Dt0MMUjizvKmEwyhEZXGKwtfrmxvRGP5W3pqfwj4QsVSmJQJ1ESDTekpzStVFK422WuR5zgaCpRS9Tl2kRJVUqjaibzGf+wAvCJAHFxKUJg6tyNZiW5KsAwQwqkCM42SksPpFaouiG9e4YGfY4nvO194PvXZl/MpECKe5ou864C+rNEEAkOI4obpvEuVSdXMv/uNmGCcNNeEgiyQCp0eA17kQK7bSoqFupZXejvDIl7B/InukskqQmJRhx9OK3N2iUckmsiU5WQUkIKpIINO9RiBbVGJZHaTSS9tHq9+knmFbWFzZFoYLm6Dn33YsvO2cnHQF3XacYt5rYYaTP14hsDNdu+QVoViwejN9VB4xRhO3cmMel5zVHM4n5Ay0Zgeh8h0dNN1DMwEPgUuUiW7xC7lF0dv1eWJdkX8HaRKpEUNFyqab3ztoUVZpEQF4uy9WN79Z39qKJFZ+SDz+PA7zisAfuHCsK9ZQLLzncofMGNjVHX+02Ioka44A3BjmNrGMhcnwN43XDuzPw/Ry6rBs15l/vLEXcimnL0mfxyjJRBMEyAU0Iahb1FktFateOTxxBAqfQa2Sd0Fa62ZEn4fSumMprq7Sode3LBtJzur0ut0h5796EP3d4xUcXhPbLix9nohsHIczxkKVwKwFk5k47s5o0ttrgSCHHKueqm8zm902azyTx/HoaCifLK/fTT/9LBVHsM1S9f4n0b+dWrJYje9em8ZR8vLlo6d90e/MYTw7MOOd1aqLVU8cHns7CIqLG0aai5r4PNCDrFb1RV3Qa6sw514n2Oedowy91vGi8X8U3o+kc5l4eePbzN6TPCKqQEI8Tc6Qaf5njuCCFcEzcRI3vjDJgUVP+85pM8+FfIgoFktn8TFVV6ykdyvZaAXeDu3Gdot//HXY4tZnSoV3Lk/jzDy8gfRUHsm8XxCAtRTtvyh2kyKRrOvp7js8cgkQVOWxSHT2HLgFJS5xMIc0ZXIp1eLfujy5tIMEGFKLjTqGebLkoD+RmGvJRAcIwI5G05ntaAKh+dNHpf2VPA7gpslMs9Mw/ZoNx7PZ3AYspZisRYCU3dEByK1XwRaF2aAXX0kPk5lENlfyVi3vWlPh0s5KButWascp5O7+YV9nr8byuf/z9etTPo/skdbhHVRKGtuoLDweDORAZfo9++ek+w6P+6+RMuw5iFLlP1ALFw8EmRsSVCTmdDGtEqMuZwjAvYV0XRqZeUoEMIbYjMZ/2g7jt1SpYHGKf9qcPChllA941bGr1rm3HK4Rk9thxT6Eq+MhjPBO2aKsfiICOCd2OuDBFgW8guAPcdSe2NvJxCOF5EER5gthprfvZV0jUZ2temduEgtY5Pb/EyEdbALRgKtMawdWlKxuV0xu9x1e68KR5nXpadhHRfRkdEVb7UPWFvptEWvbkjknIgAP93B375Pl9acHkVS+UNVVcY7rlV+4bV7T2hcpfLG7/KF76rJrasSNsR0iZ3odNiwhPJGtJDg9AsDZYcE/5fUiN166+p5ncz2ZS5URbBPrZlOHpfUv0/iq+nQvcm08hK3op29RcuhTBERvp1WBLDnZdlCSqdeScY7oBTiz40T3HV7ropzoPwia1hk2pwRwuLT4niiGyJaJxUyZ7hYCmUIB8cMe7Ozln0coxhIVmNHLf2LAHCZGe7feDFydC+D0H7g6+emuW7C3y8dqNo7O2C594IrtFQ+e4oj0KiaccUj66uepzxe2pvzuO/NTbqtVToK0C+wA0LO3I+tNVldlybkI+oIet5SjVZ+qU34jGm2tJjm9cngQtBX5QANKyNeKq2+ixolFDJxWMJaBJGkutkjcnPJEkSSBFoFUrrCXTGnj8VudxoV3ndgNdvvSKA66k8sitNCdZY7dbMLheRPX7Jc+KBQy5fhOsYLtkVXd1o/Zz0Z23G6z12G/OTmKMJtnKZVs69wREL0dmUcyqnWtLqTlUqS15hSlRIBS7UClM2W7Px3EcrOsKsnEfBAzvYqsi7cKbDW3Cp51m2M0RcouCiBZtYhANIOj7moxoTUVMNTDKhXsMZfeToPNWWdgGQsmLbF6c/aOY/Yth8NvosEcQr5hx8I3n+0/WN1PZnP8R3fW8sn2zgMBrbdrLkXN9r/YsYbquMgC45fSxIHtc3OGrZT2aoSHtiF0Xe9CfwZchATlNKJvRY0mNGCLiwiaAIciQExi45fFa8T5RIJGFWV+IwQQUQUf8CKRbDZZtjgN+GKnoqyt7lLlydtzQABD7TGvazbkM2MM954hG6k8+zaNUwkhSvqw9PiP8U8Xt0I+x+25sVGPUy5gOYceOvMmyXiiWRhG0TYiTRZYzGTpKJPtM/LFNJE1MdrMp/VE9x2eqANQwC3lkDKsD2ciH+kmoLSujJaS2FL+icCJPg8V69Kz/Nq2ZM5pEMDizD8+ffbHJxuPv44l9otj12zBeQvC84s8MbCo2ykijUyfDQI4SOHG5AgWyk560oV4NXVY3FvOlwt4MdcdrOU//fWOzllZfy36J1fnLo8G0XFnI5Vs5VwQaOTtIAzZdiRgOUWbz3IiExfZVdG6IpOqM2VXEj15EFkBiAgdRDVI6LMxW2LTLbYIMu48lbcWdaHO6EoHSCaEwEYk9u36zsMfo0/+kMQ3ocO1wuK7zvGbNqsLx60pJPid8LlkzMwL8sBgkId1Qx67NeBy7N1O726m09FyIlzE6hWECHh2L2Uf2Y9VM8Vq2WO3YWeeXGF0QTqu62KwwYRV7NgwUsWOq7euVOcOj9wYOzOVxPAcor8RBWrR94hVOkiLrbfVoii5yIRlgKakLOfIxOkRWNo73FhPLn+ajG4UYTGxrwsBG002/fgNm8liQPxil806E/RJh3d6qLvIAX8I2K7gdJumX3VEdwuY1cwllPBjmWh584dMYMH8MLg/4XW/PT894XHLj69dRP6isaoZRfU3CBISRWRIL4LZ7MTh1XUDyGT1OEGqin1TV2eqW7dIrNt6WpSwibcjMi0BJMHFby5iu1Qk5sj0aRBAeMZELl+uVFc3Yo8+je0+zFEIMWztQqKCU16rOpPRMO51I7rVtN+jfDSS10VCAEM3BNv0jJjn33amDkrhRzksXTFjz4hBVynpcHLQp8vr2FL53uLMXMCPUHD1jeJF0kjK0hYCNEKAYWxUC0Vk4fHbhKxR9e7mt+3wRF9CorA+uNXqo81RKUBYqDJPcytKqHVmzJnJkKgrJNUVxatLxgxlol0EgO3S3hFiZqbTxa8/Da/dTSMwMTGxeYxzbztDl6w2u2nS78FeZuw0l+ayXYTPgN5k1LttFozeAnOWhfecCAKHoXlo0Tr9hh0hcgxGXTST/ebZVrZQ/ODy3NXRkByjn0GnnHETF9AwknmHYCrZ2nN4xIXQFHkhjSIV61ZAVzFspUpXaFpvtwOluiLhMDCJZ3OfLK/d394LL2W/+yga28OaB0Vvk0U/cdOGJe9wew6r+ep4cCqACTE5OLiIDwWmNH1Ou9NqyRSKk6/YC6lKMVsZuWrzTZmVcV7tvR/jvO83dyD9iMuJGc6LqIaUqZcIkIPozEd0IBebd0qgdVzEp22HR9W0Iyfm2Fw+SCAS8K2WoUjWVpokIc6YltRyJhSIp7a0rbYk8WkQQLTMZ0ex8G760ReJ8Eq2WKidh2DQ+aYtc2873OMYH+ixqB0LAuUyv9Pg3NO68GlBl31uxFcol/X63PzPnDo9XlkMGNuJF1bhPtzd/9Nri9LhibD0bxpWtEWbDx1BSQa5rVrdAocMPmTA1YbD429aHTsJalirRscMtawoB4ohQRCrfJ4oQ9fbbSSPzK+LwFEqk0oVdh/k8C+fqh1lrtfZvcbZN+2YEzNblE5ETz5/OavLQ2aePwIOq+XKWBBzlRtHsQNzBrOX2D+sFQsD+nxJOVLo+GVbSyFzLjwCov1EuuZELlx/Qioy/oCT0yR5Gw6P+oJ8SWf9QnVZFJLmNAybiCG2xT6PdKZa0ts1Qe9sig5TmfBaFsfdYbHDi8nMW/bJ23arywC7iL8kuxkrNF/ajXc2sslWWkcA3YRz5/GdNehybBzG1g6j8UwOC5FecKjqcIoQlrGUkNvOyOAFB5k6bwRE48myUGYrthQGmYh7ZPBZJEpQc0gjQWm0jttWHR5RU33i2NkvNd9Z3XZroS1UIcnh80htYtK8h1CF6rbboqRvHYFDxFVZOXzyefxwNV/CuQi1yz9rwek/7lFlMhMZOJUGe+9kSMbWUT1HSuzMQ1wVp9WMxKOdA4RFJWHwKpOJlqKbBbvPlE4XyvjKYHx5uvMchZZNt4YATCIuomXbyDlIcGYjfmx+WyFuxKT1fFVzuKWcVh1e6y2pKAkUNKbK7+5tIxCpXZKBftFuc29HM7cgbk7WXfmHjRuOAbq7vP3Zf+ysf58upGsrVXQ6h1+JEB1atHjdVj8CNRqNPocNuxGwOHPY8OlffTG9OeFzbxzF03kclVetlKuxreLWDxlsV/BMmvd+ns3MFx1WPULm9Ngk9C+EF1HyusYT1pWtZa8tfAegQCSIjYtlQ6K3poTag6zcZAdyN6nC/EGDNDWkaotuqRQEzd0Y9R/xwa+8eoRAPJ375JOt+x9H0xEcLaM0gpWZWO8w/ard7jJhVHdjctSFr3hmE9a7S9PYo17oBVu82GJEXus1Xami23uce/rHNH6xIT22W/z1v66XzKXREcdiKDDl98i1SL3ogq7zbGI8YV259MR2iRj0KhN9YsXOCFg2scW2HZ5YuXU5OqvVnD944lLRUI4KULqlIri0Rj5P9HYqDqpW5O1pECiWyj/c3/vi3/ciu8f7EDCBOXLFuvAzJ+Lu260mzIwFXHa5Yes0IJ9jXfzt4PSE2hfYamSzuP8kl4kpK5Lyycpf//fl5dzBpTvu967N/OebVxByDH/A+MPEZ1r5WnOOXda86bpGlaqgn6m0OQdVKaqcjYEl8cTm6js8rQ6dKdZZLRU6dW/ZOaGUsSOxRfW4LtEQQV2fxwxBScRcVya6iAAmM1fD0b//1+XH9yOFvLLNHGsZPGOmxfddrlET9tohqAoi8csQ+13E/BxY1fwdfqZesUXW84WfssWs8m6KYJvrX6UdAeMj58GtiVFMbEYyWbwAhVzOETc+/8mtlufQV6dvkgwme41G9hP5THP6RlvhwC2yU6jj8GD6m4jFNVtpr0c0LB70wSW2QkV1hSRKIlD5POntRAx7msb2ZASJXj48qtoqBpMe8fURHhpROUYvW81WxMw04qOd3+nAPGZPxZDMe4qA4txqky+eCTMi5qQjZZyHjoPRkb33JOedMHv8qaXw0bNIDEHD88Xy4kjgg0tzMwEvXGBPBZPM20VANLbaulzKJhQ0ZH5VlpnqIpNKtax6lEMtcqNqhyfKrZKAaiJT5S1UZGdwSyhDHlxic7ilIjFTTBM90bAWrLLC7mWGYl2Z7gABWDjsOE7l8vgS57ZZMXOFzVgbyaj3ivFy0WX9PgM7GFqwTr9mt/uNGOrhow5i8GMjQgdtySoXBAEcb4EepD8lTFaPXrHGd+0IOZY+UjafFDKVrXtZz7jpbmBbZ62m8wW8X2Och+nNMY8LO9YviBZSDEIA/UgGE79a88hFIGZKpClfS48cbebZQE0iveTw2PTXlQCCUh3SpxW5mb4V4rqNajOb8xSF1NZFDklCTER9kU9FdWvJzM4QQNTgHzZ3sDELCxnuzE65rZYfNnbCyZTVr59704E3fbzv+6Ys+IfjXmEjx30unGjeWVuy1gVBADOTWF6LdSuIDA6RMIKfetWOI5+wHBfeDj4vsVvc/D7rHosH5ywY5YMmlski5GaN3nxBtJBiqBCAzVRZSLafNdup9CMRUD7ZWFUVFc/Obomz1obX5QYBRPoXxkUrvbY+Pi23pQy1pOXT6xxCmVtXga4qhTDIocxeCzZU/DG8u78d/vf7S+FEEhjHs3m72fTdxk40nQEOJpsBYztEEXPazSGPA2MCBN2/OhF0WKTJ6+/HBK4OB8MeJDPVOPb26DFqN88aU3dKyf1iZKOIiU1sQlcmNqfM2Iji9JsQXwCDPPzrb7UHV3oy+6q1fuwvVPmAQXQTXbersOps2Alyuq1l13+EIANXOXZ4LL1i+GtXo+5DITcAGtw2ohR5NqLpIJ9ab9Quy8Yaogmkazq9EJWqM6tG3DoQT1ZhBHLF4tdrm/B2xbKy0+7eVhibjrNFHPnz/NLrzFZ9yOt4fW4Cgz+MDDAQlH3xHJ1+/S96cMTjfGVq9BBTlEYD/N/y3lH+ZgnbEjKxJI7KU1Zspiqb32V8E2bLqwazXZnGlP7uIve31quhl2E/tfmkBZV2XSP2KeBMhoJ+qSHIg0vbqCiM4vCYCwpwaSuIOURAfGv81b6EiNviKfI/MQ0BuF0VMWtLCaIkGs7hKqwpJ7iogwT0BZ+usOqg9YtZJZLOIngYeTssTomVsxQ/RZQW47lRtxMzYC6rRcyX6b5GAIuPpgIenOsEc4KJSoTQRLCxuTslTGxu/5ilIw+RXvsq7QyagvPKxCb9Ufe11kMl/Nmbu7o+RSUGPUVaO4wccgGmulya9xy1wRVVbRBf4qCSpjnbdkvRkKgYiUFM+L2D9CSRVPSgFKu327pIT1BQK93iKfLv0zTWI2ATAoTHiaAHT/N4h/fPWPBFB4tT6MIalrmQf37Ej6nOPtVRit0EAXp5hvNDjE2cH+SbtCy+70SYscNVZcUmPubtPc67R9I2j8E1YsZqJqzg9difHynUhK8s6gECbCSJN+zYhTJlJB5kO1EwUOJiF8DqIBPpY0PThAvRUTXxFxwVxs+HkJxgmiY8maaDBHcDJ8CkJoiij7ZRIiPx8CvW6qB1bRVRcUp3vQlto32RA2+HpwN2LbpVWPk0hXNBx2/asCDTM242mpWJBJfNvDjqx+EyMjx0X3Rox0LiA60Vfs+kH7tmS+0XsWIzta9E2MFQT1m9Mo7T0o1PDyL4h7E+zkrHoFD58mfE/HbHbcqKrSIAq0WGS6xAmVpzKtI0SRPDXljCRjxV+RBAlYNbZCoODylcTaRvVEQVCRqRhvLFnO6mtdIihzTUFqFpKu2uDI24QQxqsRHBYOfT0gM8TMAck5m4zSXLCKWIRQq5ZAWeL7lXvPwnbsximawGbDD32JW9CoONidTOZDTCe2EVLgLITb3uiO0Un6Uz+IwHZNLREo7L8I6bLbbEH1ef4SNuMpfHLoVJr+f6xIjfYZcRWHr6/IjWm40nGTG0S6Wq0dKJ8vDkHzM8scqJBK3bVbL2WnrKV2IA4TqxvSYEp+fQhHnrRe32SuucW6SEAMM8t4knLJHL46MdnBzCYJoMxrXDSCpTgKvbuZ9DWKlquZpPYXlefvSKbWzBHnLb50OYzJRrMlt8vvqYDCM8LF0hO+PwGXGWfXKvtL+Sx5ddXUWXOizFd4uY7n6yd4hdmwfJNB4k7Mn7v/Q378xOyiekdx1P/oz4i/YTPSUWway1buR74e3aQoCERxWoQI8cV8dtLegdZzRIoGaDEpn90vBxmH1eulD8am3z0e5BsVLGGeU4JAYnXG+tpZ7dzSCgFKLm41nBTObIZevMNeeVqcDcqHfS58YqPvkMDTwCGN5hipLGali4FJi3Tr9uR4BNbEV3+Exj16zuMZPBpJyWh1lNQmM/kVrZP7o2FpIOr3ePBxt20dtRc+QqmIASKv8BSnJvnM/0yOHMLsoP/q2wBQ1JAvFE1ZB/4RYLQFBckAxXt5ACQ7EXu8VWxYfEHlqft7x/+Mny+lY0TrOaAAejurWv0/vLOSxaIax8Uwg05ZiYc16ZDOAQGTmZqXqEBvUWrzWIJ8AvN1anYfIVOwZ2CDmGkHITN23usePPuowAnhjMFmQLJc6RiR4h0MjSUj4bT7JvogxikZiv2O7uWW/iDIbUnFYMsWkmRoLFEwlacnh1a4pcupVGQ9QWJWq4ndbtEStI2PU+aKT1cPq8R7v7ONOVvR2W4W3dy2x+f/ypBlhhMR6Ou8MIz+HAfruWphYaISzz+wsBjO0QHjrkchSKJSxlUia9R5Rw4Rj3u0dMFmf9xSnKoieKyNlf2vaJtGRpIeyJhpGdjXbAhOrMh1idyO2U8KC5uk2QGFzEMqvoW3J4pBXzOqXErVeHrCRux00TB2qxYyYnCszgMmVdn0fCiENsph+ABKKIYZHKsSJVXeRZYfWPqSQW49XysNFq+nUH/tlcmN2i89JO+yozAKANjwoht+PG5AjO9cXeg82jRLpa8E9bEGOl2yOB4UH0TDVlE0cGmdtGPi6+7V2CWkHraAJ+t9ZsnXZFYZAmkytmturweqeJyJlEpBxOs9Ci3GItTjMl5RA6lD4DN4PmRAlVPg9ikDwqMha+rxN4Z8ejeDxxWdVlYiXsKY5uKnGkoBc23gVmzRjeuYJGxFjEXit81OlrfaXw7SKA+cyZoBf/sAgzkc1n8gXdSV9v8f6kPFd4ftptTNK3g0ArFkm0xuAtGrp2mjoVLcsALoq9ee78KIHMVoz8SQ/dcwmZ6fOMXv2XoUQCCvAtBHj+/DdsmoTEL11ER3wa1ulGAQupYsYdoJJHRdbvt9Auks7gzb32BCqbq7AsM/w4V8jWBnd6Hc4/g7ebWnQiiths0IsYHBazdHj93u0dyo8DgJQ3HlP9BwBhNhF7LI+p8Youls3tJVIIUHf8ItVhg7JafQTYauHvtz7F83d0KmVr1oi4K/lkKmHq6RItJ/iLHkHVHKujylfdnjzCY0Zom9MqLl28RRPUAdQcbimHMylB+ap2kYkcIkCCbulXRdmjW5JZZI4eQs9xztk8NNzc2SRypdKPW2HEzFReycvV6BZi4WdSBwgSrLRvthkmbtonbtivzwfH/S7sLMY/eezZ2XTNBWwF+xNmA55MvogTEvBLsXgUORFgM11GdOnDpzn3qHn8hu3AmP7j0w0M8mYDvqDTIY+H7V1vag2X0iHPHSGbUCSQiYtzuigScVYxRCblcItI4BLzcauqRbdEoyo92eHV5dXTTNIH4rKsSOBCDi5WBmnKZ2FwizT9cuYpE7U21YFqtDxJPG0+C0xFJLOWrK9z9pPpe9vho7SyAy+XqGzhlLu1grLFCn1h0PmnzTNv2L2jlunajJY82bWv+/r0wmNp7jgW6BoN0VQWZ8BGMzn8UeA9CW9Iuw9zWz9mY5sF37TZ4jSYrhju7+xFMpnLI8F3FmYWQwF8/T29AMPJgQyRyjby6zhKcYmv4/yaLlZhKwdiMf/0kNbaf2mgyW2BubYtzuGESgYwVOXQbUsOj5h2Xcm6AiETzZG4qhaRT0WsDBK4KL8Rt9PkE39wQPeLT0MjniQMl3J1MQdpCMw5A5CAw9uLpxBXBc9Y+FFu+6csoqvQ82Z1G2ffdOAYIItdmJ4eAJ2lCqdAwG4xT/m9IbdzN56KweHVoq1u38s+/SwVD5fw3bdUqCLGtCtowsbNjaPYUSqD4V3I6cBSz8H60zkFiO1UFQ2RyviQRSVm7OSYd+9MKzeBhEo8lpBk41uxSvO0iqFI3Oo3PKoDRmLl3qVJSW1zoibcOjLRVVpiJuhKQvs0iGy1vSKKCmfJ/lLMFzn0b7pULisby6vV+E5h7UthZaZRjy1WOPwTbk9RH15+oBx9//bY+UuOgb7yHe95VDnsRse/cgmRVxULg3Ni8dq0t5wvZpV7LADeiMRwQmyZlvyev/j9JIFocLRmCjlsmlRaoQiXKrMXt5CQ2EISVYuq2+atk6aivlrVFIfHdI3YtdVqIyZt5XOLjAXLSXygCS4mo9LmPqktAYhYbB05rfCnKgQpMYGcqoQoNhX17y80PX7ZqCL4fQ77EOD7oI4ymTljvvyhyxXCljudQS5A798+7o3k4l+vyaqfvG0fv26js/HQYPKgtPFNGlE3aaEvFnZieeeLfS+9EWnwuNY1RFo1yZbCLvGlsq5UhYwb0iDTMuksh40q28nO+JCmJ+qrLKlgUkrXbY807KKedVsRM6kthriuJqARO6ZH4olsuXtEUSnNZHVFJRpIi0tbt39zMLIrlJXhHVRwjZoRDt89qsxEOQKmy3/iCswqR52hSLRu/auslLy7CCDiKt5aiSd2oCMKDyJq0kkaWMOyv5yHz0P4MYzrsFYTh+o9Hwl0V4qB5dbEEGl1hvkSLy0BcujPvG7RKTPR9Ck5iNXBrZGZVb7hoZg14YRYn2i6K5OKf5NbEokF02oCwXoqG/FnV4eEVgaWn+VEThMypu/3RLFUPt5yrtdN3rI7/CbvpBl7EhBFDOGjzI7no1ulh7r5TPc7blJ+IDDidm5HsLq3oKCh141csi78zIFjpBJ7RTg5RKR79k0GMVkW3jXkHKU8Qm1Kj9fycwNDxLaoK4aIuXXR2HaRJ6SCmnQ1AUl5xVIetpqDJZuu4NSbB4vYMnNqtBF8yFfRQ06Stok+XSxiOYknmm7u81hgpu+iMBeTFdaUPw4fIIomdiZAQkxjws/ZvcbQotXmNth9L0JGKSO8rr7EXUxApFRtITAT8O5Gk7liDCueUNFoUcLxxHdL+VQZh0khB3vy4PNwgKLLaeGJhLaaGE5i2C42Xx3bTOYADDld+zs+/zdXkqcDk/LSKk226axeFx8X8FSxpVv8NgIR+WKVjnvuNFqImDI+YFh3nMcCn4uop1Gzs7o7scRHj58u7R0Wag4PTODU4OqsTite2EUHV3N4nTUiaw0sAi679dpkCFEIDpIZfKXDU2TzGOfeciR2i+EnOdrZEtkobHyX8YQshSI+Dh+vbhhYRLqhGGwmm81GhogJ0KBo4rh9frnnHKKsSyzSnEG6pl9toYBoYlprWP09qUf6AD6GGE3QxRKyApxDCZBxTqOeY4KzSYhiaJ8J0kukORupzquV7zd2nh1FlY8rL0uAoZ7QdUoZthvz15qXaeXd8CKAP+/pgPethak35yfHvS6coYjHBpvwpt+w45OevrbprpSr7j7IbT/MJGLKGG94wWpZc7a0dQ0RSskak9XlWxV7lYnGLbiJBllFf8pblrktPh3UUju8ttprkZgdA6NGaIr9QehrGTLEHeim5dZWDgmprSKKzaoxGQvMOYOawHzmg/WDw/0swkE11xGYeB02G05IaE4nS4cSAWzLQ8A5fM+j84MoNA9WbFqdRvrsm4mUELtnYzkZjqawJw+HxJ69NeijnmETpEWJXJ1WF1CqTBlZP9g6upintu5pcjpj21ktkvOlKc3TiN6oLoNOCKrIgCYDDUpcyBFpUAuZyMHvafQUebaebtSiKDbkV8ncOv++pjyMZx5+FV1aTgYXLIFZK0JjqEZ1pB0ycQD6mMeJfVeN8OxrHKTwp0cAD4Y4fHAGjRjkxcPF/eUKJjYrZd3ReuGL3+9ii8vYtGMhFLg6FvLYLPJxqos8waIY05rlZJToFlWQI2Zy/jmaMsjAItVVqluZaoenwqhbzRDKdbmJzgMEWs0BBEmlLarL8GwyRbHP8UE5G2W1raAvvvhy+4ePImtPk1hKPv16CWsyHX4jJqWYGBuLg/hKYzLi5R3RpBrFC2Z6mZAIEAJ4ihCdZ+YNR2q/hA15yCykK1/8IZx25Rbedl6ZCZqNhhsTIzhVUSJWFwFyHvgjxcWOBGkQ45Zz+LZGeD7jCghDgp2NFX3piUGTBJ+ISF1AW89klE+sQppr6RkRFHVRMMgDhsSzM7bD7PO2tlL/3/9YefYkmUliQR32mxexfWr2jsNgf+HwXFbLa7PjXrsNRwLBNtUfAJ74WEiCoUQAO9Dh8KIbhXw6m0SdxwAAQABJREFUg8ArwOBoN3f/91FzoGqw6JdDh7NBn3R49GjAbsOCqYwYbmHcQECOhNI1qhd/ofxkMTHZQ84/gwQ3jbZabJ10AT3qtivhi/nDXni7tqRh6Vkfrt6kiGnaTaAVagi/0J3S7TIRJzMZwHaZ9B19Mln4x39c+fLz3UxaefuulqvlIh5WtR52swnezu+0281m6e3U6Mj7lxFw2602i5n/0lGICQPELsCEOd6lYNmwaQGRxuD80rkCwrfioIWXGQzpHZmduuaLrRObJhFeFV5NilSUXb9lOaFFXUVULbZCo6rCtyaqzCygdi80B/9W2IKGJEEPMQqQlfNZ7q4n0C4uNISrLeaQk58nldht8ekX4kKhfPeb8N/9/cr2dgrvCRC79jJuH71iM1lfvD8h32m1yGOA+qVbz13OCZ9rL+4ulo43mCubzKvV4KJ1/m1nPqn4Of+sBcduYIunUS5+et5bbHkaWS3kA0aQ0+/zemf6X6UjX34dVozsy2YWt0RDv6pSUdwTVRaJteljh0cFihQvy6Gt0G4OGLImdZmLWBCBmMPNUVFdDkzTVgKsuCFOIwcXbnG1zo19Xlu1Wud/cSgR7OLJ08hf/82Tn+4d5PPKeXf43BKct0y/Znf6EQD4haSAz+PA9zt5nssLTGSqCQIOi3lx1I9gYxi7pXL5w2SmUCrjrxDfhnGScLlUHb9mw9diRN0EEwTVxD/6U23Cc7CLRNPfyPJQPoA6FygUY1qvacqHbCQeZKMEEWtLWfhWVGbiuonjb3i1ptsw8XV5Nc+EGqyeSElKchESrDZngl5Mi9VPk+a2kKA0N03SIrNF/vB5VKVF+j4lCx+l/uc/PP6P36wfRbIKVrXTzGfuOPD2fRwC8bliOK8z5HJgiPc8Q/5XItAMAfytjXldHrsVIcS2IvFUrgCHhwoI3LPwrhPvUhaHgZdE4eSE5f0jjALHPC6s/m3Gd0DLWjf9ZMTO3jqhRVwMP9tSzqyVv1iWDwJcrBeVIoc4cC3c1ghbtcwsACWOQ4upcrt4SxKTuFBGlJVUorZYMdwirdK2i/KIrKgh5KA5EoybpkwSm4rEinXTIKubP0iZf/hy4x/+fmXzWRJv3NALk0uTr9hwBhBvmcLzBJuFBZkTPnfQDRMlHd4g9X9vdcGHXkyDO6y6eCbHBwVj+zl8nqrh7Vji1w+X8Yy9uzD7yuQYRocqgsG+Za/QlmlqYqDYFDehaQvSJhKiCW4OPEEpWgkaOZDhRSknuPUWVWZ6VeIsXo5IQ2pYVJVFERXmzLNJMPpIUIsEqCgnpSn/bKS6mK0cHGT+4W9WVh7GSwVl1RwAwwFA8+84lQOAnvs1LMi8NTXqc9p9DpvdIj+2XMyevNBS4e+wtsSp2esj9p7D5yHwdCSVdVst2JbHR+tdaN26IVwTX9KEPds3LY1o65qQaSs2yjlRQpWNVfk8VSm3Qvl821miaw4PqEEC+kWCgKNf3Kr8tijrOXo7kpMlZ2kpH7fio0BpZOIS5R+GNL6WxBP5v/3b5a8/2c8mj1fH4WCEV/9TYOaKs2wqY3KJcEAIsTGfK+hyDAMsUsfeIdD8bwxnLmbj5XSknE8dLU0fTvu9bpu1d8JcHM4n+hISFWSNLBXbNLJjZP2oVldMcYsSokVRAJXPo9JeWNouODxGkFCjX8aRhUYCF+cTGXLEWmLdukVa4tPnkFQQTNViI72IUkV8ejEuLAesDgjHUh9/vPlf//Le7k6K5MTKzGvvev/0P007g6an+xGsMlC+6CGEmN1mlgtVLmxf9olgiDGGpwjjPLxpwUKYDcqUJkLZ4RaJYq4S3ynuPswdruanX3MsL0RfnclgVnPgB3kt+hIi0xo06nzkqxJ0e8bejhol28vy9NqoQvfTOjywwEUSa3XQKqDNEesireKmKu3FLYOOplk8RavnetGjIOZQuiuPSC806i7PWCb327trf/nf7j96dFQsKpOZWDswcsnys1+OvnFjHJ9YsLhgN5YslcsOi2VhxD+ciwi6i/mQc0PIgoDLEc/mMHUJ5zfhdcH/Ye8dVrIUC5XwoxzODNpfymViZRye9810eHbUY7iqn/C6LUP/siU6xbpPEayWaMpAA6PHdq9ulRYzxaZbZwh5mnvoFls/kYy0PpXDE4GrgXY8XEMaRa3rzLKqGHJ+rxMkMMssisFejRTkog6067UWveCfzOXvre390z8//fHuUba2zRytuEaMc287L13FcM4ES3RjcmTE7SiWy7gf9TplCLFedMRQ8XTZ8Obkq1Qr8UweqzAvjwUQYPr+1j5OzssVyzgJPfwwl0uU8UYa2Sx887sDq89Q1lf+9PoiFm0OcIgD0TfgedCaoBZdDpmyi/NEQR7YVcjDFrjrsrHdPq3DI8nYK7Cg2s7gIjFBenIO32oZMk1PEyRAEzEu2rPSUzQOkumvV7d+/fu1bz/dTx4ph1DjstgNk7ftY9dsPp8Nk0iYeMJqTL/ThicW54cMsLnpKdSSuYgAnqtJvxvLfTP5Iva3wP/hucJXOvyaLPrAnAUOL5+qIMRPpaTbeZj9aTIyOuq4MTmKj8eDPchr4vNa9HYizt1NN5GteUPs8JqTdVwKe84mvXOHx/h27JxEOURlOmYoMkGalGRVyQfX9cSMOBOjerfEUEnVL7eA4su1zX//aenBU+x6KiofW/WKSwssIFS0wxUw2azH4TFRMvCfT/ql1wZGTjxROFIK/1gjp82CJVE5UwkvW4ixmUuWszFlkIfE5g+ZlUux6J1cZbyqU29hYAYDkqjrV9gaw5ThOi9V68p2XsLUbff5cvK6hS1kngbcWte81DfI6YqbgbHGE4BfXKwE3Yo5XISESpGuiCHy77s09v8+3N1PFwuIW7/4gQub7bAdyhUyIkJ0YNbidCAmhhzO9V2v9rHA4x5nyI3xnsnpNSGuNGKMmWyK+cLEQ2y7sPx14mA7WyrVZiH6WMuWRGfrRDatRW9HxC01cAoilWyn4NS1qqKj6XCEx25D5SfalVEUpd26jei1/YpWThRYpOE+a9TEMOQn8/l0HhvuqojhO/e2wz1q2voxg2iZ2GludRgCTizHlNvshuFBuCg6euy2S6NBzFgmcwWr3pQ6KOFfbLuILQo4Ff3ZT+kfvjx8//aMy265KBJ3Qw4Yrro2FjaK/Jxo2epSkhSiVWxC1pbILcrWrebakk1FTDJA4A4dnopd67fUPb2DQNWv3BASjbqHhSca3J5IyVUGOLEdTeSKRVIQh1AjNjQ2mGOtuC9ocdotM0EvXrYZ3gHGQap2QRDAck0cjI4TFvEetmw/yrxaim4XlIWaCSUCWTpS+td/XPvZncmA3+aw933gFdGOkTnS/q2xz4P6KNUScMeJ3JqQMX0rCXa3dYcHLBuaJvGa8CSaJgSdFRFuXJcUP+2UJrNrJUG490g9EoCZA3FV16putQIzATPR0gxJTipf+HFrN5HLs76IpYItd5PTrpszo3fmJxDnV24/YHBk4mwQgM/DV70Rj9PnsLsD5oWfOenwILQOu/rg3tFf/dWDpaVoufziQ8bZCNbFVmB86HOMyJMyxRxKs7MBAS4tAXLEIqavS9l6pjiJ2qgWtyUKUJeYJWcLXJesrUzCkOWkuuB/2hEeZO1Ays5qnagwq8dYn1hFRQBdCP0eSahq7mLe4kPI450DBOfFLiiVhDjD5ebUCAIeqvLlrUTgzBDAehZErcM+cxyesPieMxMt4xtetazDc/vP/7R69bpfb6vOz3ixtrPv1lLB7OAiJNmucg4SnMlow9aR3SMyFQEyKR/0HVtFbosSbGbRlqo5FWVz2YiYxWvOSsW5+S1LCDLwFzl36PDAggVt3rZY2lktkUMraVG9VuhFGpZQBZNIM9hpvB2vrcd/9+WzzUSiYq1ykEzSGke59p0RGez+GkLtMHWjxJi2mLFJdOpVezxcLKTKcHvwFIV8+Vf//UHMnP4//suld65OBZyO/lpYxUZVdE4wSuzS6hq3Rn4F3OoyPM0zw74EktQVRsW8kWxExhK2yE3FvO4tS1i3tEOHx7wgcStqM33vEty1p5QH1YnVxVGtd6CpOMNkIEI0Ymb+3UdPy4Hi6HWrd9yMnU/YkEAXDI10eCrQ5O3ZI4DQ5BN+N2YgLMbS4luu9H5p84csDomFJOHNzL/981rZWbLaTK/Pjfvsym7Rs5ewgxbZgonejviwUWrEVutXwK0Jw0Z8muezL4E8uJoTc6lWNioSJWydG7OtmxAlBAE1ITLv3OGBCwGKNrQ9VFeai5lJWjAorNfFlLZHUiFQYb5YwqE/H/1h/W+U810PTS59ZMM6945z7JoVi1bQLnZBuTGXZGj1Qe+RqJKtRACBVxZHAviKjNNiPZZk6q1y8qB0tFbAA1wuVveX8giVEBqxJ3K5t+ancIoQttBcfNBUhkgUuBWjpPIrxA1MumWcRV/C1lIUsklaJRupcwYSUhP4ZYG74PCgp8ixidqsITffhPhsiiASSSWKRGkx52yEOa9WMoUivthtReOR7fxf/tXDBw+OcJp5Pq/b+L5s8xqDcxZzbfvvuNeFIIfDA8t5dYds90QEMFHpd9rxlQ4vajaT6ehG7nAzh1nN9FEJsxTYir79OPP9g72ILl2olH554zLmNk/kefEJ6E+P7BWk1f4lqvwKaM7M27FUBOOJsjF9tyRkhmha2zp3bucOj9Akt0+NNWmG2mOZuPleJNDKiZJo2xVrdVBdy7BfchAD81F4/9/uLy1vRn78t+jS58lsRlnnjWlMu8c4dtnm81stVoPNbL46HsJWhH7RS8o52AhgRg1TDmadEes2sWJz+jU7lq7k0xWM8LBz1DtpMdh0qXz+3lb4zVnlY94FR4NtY13jw6U8zII6ZLJU9OzzQHA2vgRi4FLBixwI1kg2pu+WhNy6qlHcKsIJHuFkhwdqoExAq9ihGeKIBMjolttWJYhDcxpVlbZuWZIzqNVWExecOJLJ3l3fXgtH135Irn6VziZr3k6ns7oMlz5wzd5yXp8JYWAHszKGwNBDH43+gvfmsImH6XWnzQzP55s2z77lwLY8OMKp1xyzb9idIROO9UBYPIRQQNSlC756hc2XaJ25N8m6so2lBEo5hymRIJ/XRV/SRDYIQDKIAlCa8lFXLCLZKKdbErIAaEvVHG6pFL9UVN/hMQtRVqSRj0vh+lwNSiCzbilXF70d1+XSdhM1KaqN8CIJ2+U5tPTRdHbrKL67ml35NJU5Kulq72pYqDJ5y44AK8GQ/dJYIORyPu/wocVJKn5BEcCXPMxtYvnwxE07YklbHIbQJYvVYaSVVsVyZTeevDwS7JcTYrXmS2s8yYRSPtlelVFtZBs77kJ2VGhUZE6tgy0EYBmQSfn0y/nUOrESmXQsFSpqwWnOrY7Dq0n70hC1psuxqwQ7ImCJqZQbplJWknQmIYiyuUAnlrJ4SHArzJ+aU/XKiTyHlkD54FEsHYVzq1+mIhtFTAcBCmxF8M9aFt51ekIWjOqw/lt6u6F9Qi6+4oiuOeV3p3OFpKlgedtY1b+0lwYz9g939uHwLv4JsXU9AdtVtrfcI0SPW60lZJouJmBsybpyc3SLJlSykZ0nyZlYlERFLxZ1PU1isxhqh8f4csMkPf2iGi4qUjkV6CCWMpmKD992lhCbgEgqJqQbZYJSS6Cixy3L2Qqxtnq/52CqJxEvbNzL4PzoQvp4MhOfQK5/4L122z8x7lwcVdbC9buaUv4BRgDT7LNBn8Vowra89YPYYSpTrrwIIY0nfDMaXz+KTvo8mJm/4DhoPQHZNG0+KSJavF6rRhaSLTA3faJsLZrizuRH6yRYo+osJ4nxki1jb9eIBfJxsc4qn6cqZQkon287TnC74NAIZeSTFiAGGZpu3hyRNacZ4NJCsbT8MLZ6N6ksb6tZCZNNmcx864PRN14ZG/M5sdMcT9QAIyBV63cE8HRie+jCiB+BzrFoE/Hwsoh5LlzJTGFtJ3ZrdMzRhw9zt4yngEfnSTKnoh1uYmBR1DvrCs5Nmm6i4QuHJ3q75ryolJRR+Ty0hFIiaNJqB0Uiyo28HbFF6yQb/TYRRlS5A5H6ugrAwQFAqwiq8q+b28uZcuF4MjM4a1l8x7Ww6J0KuDFZ1Nc6SuGHBwG8lhl0iMCinFrFWuOlF7vR97dyH9/fDuXdv3h/zu+1wkKdMCjg+kOcgH2oazkpE6W4zgseHtI0dwQsHnkECIzEsUUTTX9dPbkyJYgFpYmRiqC7twq6z/E9UUmSn+hr9RQ9KVOUql2VxboDkI5n8/ef7f3LX69//LutVLJAGjkDptm3HbPXXR63VQ7sBqCXh00Fr91mt5oR+hx/+JVSFUcohB/nNr7NJHcikdVC1VS9fXvEaNa7rVaEn8bazn6fuyArpzVuHfc7GUyqjnTNcKpBQia123Erp6ko2u0W+bDAEFtxeCKL1rETJw9br9WiiCKZ2AcnejuqCHlwsV7EATlUKvZWjVDdo2LrA5nGzM+9jfCv/ub+P//q2f5Ojt4lzDb9zBv2xTvu6XEPQjf1S0CmgewgqVRnCARcjpmAB1/mC+VyIlbY+j658lkqsVeC8/vs4x1zQPdOfNTpN0/63G/NTc0FfX29zYbtG1u2zkCjWqKZZT6UqbW6bPyZ8mwSosqdaX2qOSs0Sc4Dv501fyJMYjdocefqdTsG9GJ1pJmeEpC5R2KrGro4t/iGD293mMz84atnv/+H7YONHM7PhHgYz41dt735y5Hr1wOLY36P3XrB9y1dHEilJBcHASywQngEHIyeL5aX9UcPSvF8qgJvBwnTsdJnv96NWzLTrzmCiLBpNgVdDozz+vRtVzT9p8dftJNsEtlgIsGZ3BblaPOZoLsSgq3IsEm7LICYAD3pqDg8dtekYeu8iIvIt7tpEpF4nujtQKbtGEhIQpJqLB7l8+2QJCiE2FEqvRtL3v0qvP8sR/sQoL5nwnTl56733566NImD7nAkQp/agSHpSalmQwTwrobVmFjAksjmLv3Mtb+e27mfLeWr2GAa3ymufJKy+4xGk34jEotlch4bZjL64FEnWw+rRWqzNeuWHWOGopkFc2pXa1chBgtTtyeYYXOyunXrZp7G25G0JNLxCE/l8+o2eTEzoQZpQlrVFbJbj0Vd5v2Sibfc+zt7//jjo+1YHCeH5Vz5kauWypMqDow22w3YdTd/wz0RdMmz7vqlQ6WcjRCgBSxYvxKYsl76wJmJlSLPihjnYR0yPul5xs2ImbcfSh+kUhjkOS0X/cQrtm+cIMW7ZdaYrejtuAkubYQ28nvtj0/p7UTJX0xpij6vFSVFLj1K09sBCQOdtf2BIiqFANrSHknVp2xL5fKXqxu78US5gp25+onrNlfQ9OxuZvdRzj1qmrxtn5vy2iwvnoc+VVOKLREgBLAmxWg0jN+wJ5QD81I4TgEOD/+2fsjggfd7k98HdhPZ/EIoMOXzXOTNpqIZJNW65eqIG5lQakX18CCTDayqiG+ZgBNU1C0hu+XtSJeXDJzo81if801QNxCUKp+HTMqHhNLbndhNWLp2lM4g0tIxpV7vHjVf/VN3cAGHIRg8Y2aXQ551dyKKkqBvEIAPw9jNbDVMv+5IHZaK32YxmYHv+Nl4eeO7jDNoqpg2Hu3u35gY/eXNy3MB30VepdUt59FZ54lGGBzollmRbKI17qK0rXs7UQCWTZt4yeGhmH2ellSbw/5GW3SaHLAVMaU0tcU+T1RPertW0MaG3BJ7u+cVLE68AtvweQNjPnz5EPcwPSeR/5UI9CUCLqvVajLhs5crZJp5Ez6vvPckh495lbIuulFQfF7AVDZU7lXC41530OnAloa+1PN0QrMNF00us+RSdjwoQqbWpWlzmMmZJVjaui1CQhC82KTJRK37D26gLljMsK0EkAVbEV9UF9EkAm66ubRM1pYMA0mM2ZuiEHKJdVSwrX23x9E/ffEBnyWXCYlAEwSwesVtUyYtDCZ9aMEKn+caMWF3Oq5irrr7ILd9L5NLVDDzsbR3GM/mmrAa4CI23XVNJWXSL1MCDeRQZq+RYfPeqEUxn4kbSaWYurplYs1GinG+CERdbq1nin6O+VN1tMINcZEop7aVur5TSzbYOVirgn0I6XxheTUSO8zzskyV1jhCuvY63Acr1lSSy1uJQF0E8A1vJuANuOyYt8Ck/fSrdsTMs7qMRIzpzfW7mYOVXCFbzhWL+Bupy2R4MtmosspsjWF4YWnpl00u6LVVuG4XE01aFGVg79CkadCopzTrUmsV45bAAlfdWu1mMr6NKlJDLAwDUZeeuXVLvLqtXPzMfLGEyLmPVo7+5/+79PTwyH/Z7J+24AgVftVB5+Hb/nTAg3PFutORFx8UKeFwIDAT9OKr3aOdg4Nk2u7VLbznxMe8410KOmWXwtPPUzaPsThewWw/ZpaGc+8pDCmspcqcsv1U5ePBIXokYIrPxrqKLaJddgTsC1p/nFt1eKJuSOOiNrqlMOMrKqNlzqVoXdtJrLbITcuEyQY+gW7CYWD//M3Sv/zd6nf/GslES6NXbfNvO/DdzuFXpnfwroLw0CMeJ2LvOiyWYcZq4B+GIVTQbDIujvoxesMZWNh155+xLL7vxNjuaK1Qru1GxyEh+EOYn8weJTMzAZ99WIPHar0aTAGshzafniIqPcsnSuXz0HRnPqglh8fcSU9uqREc7QKh9U/UBH61JphyiKCuz9Nya1eegaHH6+3TvchXX+4++mMc5yFgPjP8UNmEi9PMMbdjsuqNesOE331jcmTE7YR1GBjFpSISAUIA3/AQSAyhhbKFItzexA17JlJG+JXEXhFbFHBgLAZ8y1di318PT/o9037PRV6reZZ9CjNLlvYsG23eltbngb5dH3QcfAv+gy5tk6z2c5LjsV27LWk5U04H/qnWF8fTb1y9Y26NBBuA/GKp/ORJ5MnncSxLe/71Tm806UwIHFb7egsnB3MAbzcAgXQHoL+kCr1AwG234oRYRFSA3cDpV1Ov2Sdv22xu5Uh0rGdxBExFQ/n+Tnhp/xChiHohwEXgSdYb1pIu3F4EqdqVQeV0VLetcDOpNMcteziuz3yZmHOYprME0KeKog9DDm7RFi6tMEyPBAjwCyYkTyNuVGUIf6OR/Je/Da/fSxWyNZz1OkfAOPumY2Te5nEpESZGva5xnxuJIQRHqjwkCODLHA529DvtOCEWr4DYjTD3ljN1UIpsFDDJiYh6mOdPV/NPD46uj48ofhGeEDt1jj8V9T1INTuqdm+UqbK6ratKhreRcW6dTweUMPVs50mMtpjUmdKsC5DYTK+9HRQgh4cEhGkEK+WTzgwB1W1UpS1o+pcYmCBafDpd/PWv17/4dTgVLSp/vzqdslZNeb21j404ZkM+r8M64XU7bfLTXf92tZS8JQSwP2Em6CmUSqlcAdtRDfP63PvlkSvFyVfs3gmzwajH38f6UWxl/8hiNCoB1ssVeD7U6uvjFACNaMzZKpLN5NJ27TkbW2bYUh80JgJDsGqdGzsjUbvG7F8qwcbMFy1xfUZEpKVm2kVH5CCmRdRaV1XkgDRVFKWtaTPsiw3ThcLSztHXX4b/6/9zf2MjSbMXOAYMa1UW33fhDTfodlwZD3rt1o6RV3WEvJUIXGQE4LfmQ36XzZrJF+Dz9hJpRNrMFAv4iM1rzHdiiY+X1raicXjEfKk04/fiCKExj7t/N6eyPUfXiHYbOotFbfkb0W53pceJIcnTuvUWfV5bYigOjytQe6wS53NCRI0zT5NooiGKGIUmTZD8oARNE25NOAxSESZtsMH86UHkX/6w/Pf/bW3tp1SxoExm4otdYM5y68+9Y3N2t8uCZZkIvETQDZL6UheJQCME8JUan6tRig0Ik8nMI9PB+mEMy1hE+tXDCPbwwJTAnizvH+HwIEyE2g1mkaaP0mQVIbDWbotmEwRsP1XakS9gQ8EMe2RpwZ+aaIV/Zz6vzpQmq6dSvru3EBe6NWkLRaR8czJIxUw40V1R+4VbLJv7em0T0zJPnkY++cfdzQfpYv74E6l7xHTpQ+frb40EA3af0zbl9+Dvv1/0knJKBLqIANZhjnhcsUwe4zwM5sjIMP8CDogsVnEYcjSTxZYeeETs2+HSfkw0soqUz+przaxYJCqOilRXzOw4DVbUECfACjm4lGaE8Zi2Ca0j19Kocs7a4ZEaJERzZVSCNr/tIqvmDV3YUnx4+Gpt86NHK+HD1PIfk2vfpXKpMn26wyaEubedM7edryyMjPvdCDyBneYvxvUXViUpmESgNwjAigZddq/DhhkRuLzjRmpxpXce5gqpMr7tecZNiVyuWC73RoSec4WlpTZOtI0gIGKM50QXQhWZD7ghhzK7KD0YchM0CuJbJHDV2mxorlhgIj5RsDoO78Q6HRPwdC1L2ZwVYUE6N6eUpQgGeHdtKxxN7S5lcegPIkpgmxEubLYbv2mfe9M5PeX2OKwX+RgU2YkSgTNDAN5u0utOZHKIpYmXxUKunNgvIaL0009T2JOOQR7CsqQRc0wTb/3MJDzLhtjrqIxtc2fTLQlFO08tit6L0k0kQRFJAsoTRTo7h8efBlm+E4UDJemA39Zrnch2wAjwTQKvqY93DzAJE9sprH2ZPlo/3nWnN+qCs9abH3qvXvfdnFWWXA+Y7lIdiUBnCJiMhvlRH75tx9I5fPZe2Ysuf5x89k0GhwfBfCKBg9Fjs5jR7NcRHsPSivEULS0qnrGxFVunpvGLC5LjIkUoTfmsmirRyjjqjBye6O0gtEpQedsxAgibhNVlzyKx7zd2Dg+z61+nEQa+mHv+6S5oev3Pgh/+fHJxxjfqdSI8dMcNyYoSgQFDwG2zIsYQXNpOLLnxJAlXhyBE+AoAE4swm8++zqzOJY7ezOKDN46S7TubRQ4DXQZX0cjksjsBGbwFW+mz72iSViUqMjmfRGri9kDZith1LGDX1WaGNflbEotFZ4Vb1IcrDkkCEQI/XV6/v7N3mMpEDnIY2xUyONdZ0R4Rohd/5vr5LyffuDrutsvNdkPyREg120AAC1iMFgO2ooZmbLN3lDPzEJOoUlamNPeX89/+7uCTa8+wS+/SWMBdC9TSBuuLRKpyJCQaezs2redobKlpCFZXVBWW5PaQyZKrCJrcqh0eo9CkTltFp/F2aKgtINoSbACI0VkY3j3Y3d+JY7NdFYc443BnOLzYlhIhCSGUrnzgnp2rHYPQ2uvPAGAiVZAItIsA3J7DYZ5+1ZGOlnPJcvpQ2auAaZKVu8n/EXiym0v+3x9ef31mou+Wa/KgjTyEOOMnmmWG63yNLbUOUUU3RpJDQmRSPucgU0yzFs0TJmhOjKg+UXNO88onloqwdovniY0ODwE+tu8nUzjrDh0PrTGku/yh0+o2PP0sheOrrv0v7sCUzWEziw/68IAjNZUItIgAdp/jk57NZbz0vhMx1te/SufTyjRJIV2591HU7NZNhzyTXs+412XqtwXOsLpkHAAFW2OGBaW4+PZ8E5CERMUvSYUELkilSPlcTkqLRW2JrYzwiClXI45823GC8T0lQ1Qn9ZDoWJgBq4iFKgh0i8iA0UxOPLsSUaFn33A4vEajRe+dtHidNuVY1wFTXqojEegqAvB2diV6ugFn4yG0Js5S2Pkpq4SfrepwltCTTxNfTO4gTMvsuG824J3y9dMeVrK9bIpF2E5plkVWTdLkXOiXDPiJZhzEoCGbD8515ayb2UQMLlLCbZA0jVgzaVsJhri5ZKRVcxpul4Dg26FNYGCHLbEPd/ePUpmVgyOEQRKhQAixsas2Jf6tTtlshNiAYqlMSwQkAioEbCZT0OXYi6dLmYpvyrL4njOfKh+s5JU1LDpddKv4+X+EI+XM/HXXnUuT//vt6/B5/fXujTkeNvKkO0yuCgTcMk3dUi39iTnsBYiS+JMZr9sEMomGKyIH14kNtU7wUizN1qt1hRK6kXr4baIVioisK40OABOM7b7d2Pl0ee0glqnoq3TQz0t64dwTg95ltUz8/+2dBXBlR3b3BY9ZzDMaDRtmbI/HbC95s9lkk2xgw8xYFU4qqcAGqkIVZt7gF8bNsr3Gtb1r9rA0JGZ4DHr6fldH09O67+npSXrSCPqW6qlv36bz79PnnOZIwJyosgwZ82IQKEDAuiSrLsh4yXg0wRaFqqNViRnrzryZwWyePXmZhbELKU+wxumtztcMnuxsawkFdtwFIyUErMKjsmJWKS3Sl9xV+jh4CqdabKKeVx5VvIo47ItWKpIoiUCMEAxhvBaWe5Fk6xNPIeXir36JTvjCRFSAPeVgocq54dHJaHLoQoILveo6XS4vl5cvYcAMPNcgRNhXGwlx9Q/DNXsKHEOsQWAdCIS9nmPtTQdy86Mz0dfmR9rvmE9M55jDY0oPAcaU3uDrSW+4lkOLGFbh1gVn7W7b0iqCGugqImb11FSCIsbVJxQEPjx6ffGqAtg+6cHW7d4shUeBSug8SFJUrartSMpCZTku6yZ4p0dkAJNhzMGp6Ehf8s0Pz1XNLxx6LNB2m5fpB+nqcZYKu4sONNV5nJihy5hpp9Nuym8Q2CQEEC9el5M/tuVxJ5C/rrb7tJ+70ftfSVgLWKqsPt/lz8R9dbVDd8WSPbldcIaDksBQp9yLgrYCQkMSLExNfPgqAeQXT1WtuMVT+VTWsYkKj4IW1XkWrYvdPglQWXp2fWpsvLs8Nj1yPXnuE3OTV9KMt6QTebYi7Dvl52wIOIfp97DXi9oz2m7XM4MhsOIIcG0Qf8wIhNudBx/2s2hl5HxKJvO4M/bSU7EXDw6d6mn3LgYjXMULsDUJ6uONKsdC/aQ+rcmhxLuuyfQUxF+Cya8eErf6pPvrKazbvbkKj2LZdB4+Co5y+nbrJmy3RuRCr/7rcxeemR27sDipvmCdCtH/arK+2800Q42zBtuTu39qiszs7VZIDF0GgYoh4HM52H4QT2U4VazzeG02sZBL58cvZ7AsyWNuNPfG6xNPnrg8lYkfbm5sCwV36By5rnKgi1fxqRiOqyUk2RVVbHwq6r9akmV933SFRykKdZ54llVAE0hDgPWZkxOp8y/McsotO2SXTlTx10Y6nG4/Oq7a7ahtDvkxP7VBAi2+cRoEDAIlEaitrV2cDnBwT2wym625pyYVn8+moixgcXprWo95Ap21Lw8NXk9N37Ov486OlrZwkCPKaHHMnZdMeHt9FH2zxUrOBoGu8+hx6v2fzdN5W6HwoFPpPKFZp82GgnktgcDYVPyJT/W/+fR0VF2G4KpuO+7uvt/f1M44pqMl7N/XEGZMpkQi5pNBwCCwEgLMJkX8Xg4bm5/Ps2JzOpbiqiCMS9eZVKTTycQea8TY5MpB7S9d7b84OtHdENnfEOlpqmevArPmNyejVspgD/iXr650nUevTl5BqPwU1grn1klGXefptK21xHsqPOMq47F4bn4+6PFwosp/fvjSh/7qTH9fjNXSFlvUVDV0u3oeDnAlQk9rXUvE3xoKhLyeGtO/21NcYoitKAIoLWv3Kn29mhpGLL2h2u57/U09bl+9g0UrHK0puXGXHn8jc9HXB4aPtjS9+/jBg80NTrPtVauLcuT8SrpN+WvpVcC5IYVXdF1piUIpnSdDtEqfl4iylz9xGfObQyPP916LZ7LtodClc9P/9Ee9V9+McbItsKDtgs2Og48Gmg+5gwHnvsZwV0N4586i7+WKNrRvTwTQdlwh6Zyt9TdW+RuLi0puiOXv7MgY/by2SCjsNec8WJWp1NW6dZ6kUPGxwOK1WA7/yTof6BGSytReRueVg62E4U7XT57rY9iEayiff2nwzEfmBs8ml7RddZW/3sExSB0nvEwtMIvAskzTsSsfWxPSIFAOAt2NkalYciKa4DA/ZtBtUbhjOZvMc7ZRfCEzk+R69KVruWzB9uCrrvAgv7R2UIFtQFVc25H++hWeXjhRe0JYadoIY3SeDl0J98DU7FQ8kcvNR0dznAc9cvbmRXfsQDjwgJ+pO0+wltMyWyOBgMdcAFQCS/PJILAeBFrCgcOtDX63k+1As4k0nTmVCrcIsVGBW4SCTY76bhcb+HJ4aRNRKuTedCg1Vg4mErickBsEc/0KT9GjHBRFNB8+PCVKZnReCXDUJybGaUXseL322fjAa8l0fKmxcdwDd3cdeNDvC1tnADYFfV31Ye4uKYW4StQ4DAIGgbIRYE6up7ketTcyEz0/PDEZTUg/j4EWtgNdeSE++GYy0u488o5g/GA2m8vTB9w7zRBpD5CipQoFvvhIGNsizLLhr3zACig8CoUCE1UnBRS3pfRWVntG561amYlMJhmfZ4/d1ZcSiakc4yc8Dnc1y8bQdsFGh9tVe2JfKwdmou3MEWKr4mkCGATWgQBbfdwO6yQHRiyZI+dosVQqxz2xl56ODb6RZGd6cmbe4akePZyM3Z7JhfPWupUFTkCymivLXnal/tOlPWSuJPBF/vOVMOUs+CihL9ZRcUWjrF/hkRzl00lVr5KT/qlo3rrO2wJSi5Zhe3piRfLMxFMDbyX6no5FR7P5RW3HyZlNB90HHwnUdblqnNWNQT+77pjA255UmFIZBHYNAj6X87aOZvaknxkcuzI4M3k1xmAm2xUQ5pxzNPha8nOd492t/RNHE8wvMJs+EYvTijsjYXqHu+zGEhHshTWLP542SS6v8qloAElHPhWmWXGfCig8ykRxhTB+eXjlUZTgFv/C0ovO47fw0970AatYJsOEQWZ+/trY7JVXorGJpQvvWJZZ3+U68Xhd+1FvjdtaOX2opZ52uDeBMlQbBLYYAY6mtbSXo9ZRXTN3PDt1PcPp0qmYdf5DKpZ/7uNDo+nowYcCdxxpIszgzCxN+O6u9i85ebyjLrxr+nmWZL8h25VUV5448LTVi/hILAmpIhJSxcVdGNeW1MZfN6TwpIiKBlUaoUenRIUpJMloO3DDGGSbHS0kN58/PzJ+YXSC176JyfABR2TYOX09y5xBqNVx7O2h04+1BEMua2ee191ZH2YoU8FuHAYBg8BmI8C29IOt9eOH47FoNpvKD59J0cMj0/jU/OXnY8w4VFUv+CLoRKsgbNE7tb+9NbRLLi3RRbout0Wq83Ul8G0B9HRUFD1B5VlxR2UUHsWChkJlZiuuopOQqwa2xd2tr5nc/GQ8wZrma5PTs6k0I91nhsa4AEi6dfvv9XOJ+ZXn49zOxbzdgdP+Q111XMeFguRkd7Sd3ZrarTAZugwC2wMBWhwdOG4iYXIhlw1wrvTohaXTpVlNzenSNbVV+0/5PWHrJHcOjpDRml0wxa6kN/VQqJyQ5wQoUUWLIn/Z4J8euDBB/WsF3RtVeBRFSLUpPIWO0Ekw5SNuicjvXn7m8wvc9fNc77X+6Vl0Hvds0UhYmsmWH4GFi+46T3pdvhqOVuGsh2DYxbWuZgfCXuYZQ/stR4DLJ1m94nBWtxz1LMxXMfrC9eiyQXZuONv7TMzhqum8y+sJ1LJkc3Bmjs1FbkdoR99egiGuYC9HOSnlh/xXEXEotac8bQGU/yY5KqbwKJ/SeUq3KW3HV0WqYLHFdG4SfGtNFg2XymUX8gscd+moreV02uf7rr98fZBLzIsnVV3l9NS03W6dFsY1XR31wYDHvTehK46P8TUIbDkCrNgM+zzj0ThLVlpv8zCwyV0KTOmJzuOYaUvnuavbbve6fTWfuzYY8rgfPXygKeBj0ebierQq1m7uoFastBdIl9Z2EKWEv6qWQkoLfVTgzXZUQOGpIkKqTjBuHvVVHEU9bWF26yv4XJ+auTQ2kc7muuojR1oaUXgDM7N06SCZZcws+nK4qh0FZ2Fat3P5PB11ods6mjjqaLfiY+gyCOwIBDwuJ0sxJ2IJtuVVV8233+nlkli0HTvz5rkgfb6KiyovPV3NCSwtxzxV1Znn+q5xLufp/Z1Bj4sDqZnFCHndEa91xYJdPu4I+osVUpSi/Orf8eEprSb18JvtXl3hSYn5LdReqnB8IgCvque7lxWbgsXmiKYynzzX+9lrA+nc/IGGuq+7/yTj+7FU2kI4XxUdy/a/lvQ31DYf9nBerUx6qxS4A+FEVyuHuO+aFqJIMw6DwM5CgMFJ9idwKMTl2prR2diCr6rrbh9njHElOtN4HLeSn68av5TGeGUfEc15qir51MUrtPQ6n5fJCy4e4uDN+w50sWmBlZ/bn3aR/ErCF2ovS4LdmMDTJb9SB3yVRG45scUVniqolG+RHOtHJ0YvOv58VT4rBVMB9qbjyuQUyy+Zx4b8q5PTr/WPXJuank2mRdv1PRu//JkYZ4alo3kmANRCLwKDJ1N31mGZexM4Q7VBYJshwDXLh1oaGNvkuDG2onOLQvd9fjp56Lz4pHVGBG7OAsRsZXim6ZB7uir5wuV+GjKTFxzLOTAzF/Z6Gv0+Z+3O2ERLyakBEfJoB13nWYphUfgXin2CiSohgKRwy6uxiMKzaTu9iIukFe+fQo+QTfhtQpte8u3gZjwzlV2aq2Mon4EOrhdhfCM+maWdXHkxnpydT83lL+VitJN9p3z+kCO/yGNstuM0P3OJ+XaoRFMGg4AgwMLLtkjQuh49jRKbb+30Bd7lrspX9z4fTU5bG9JzmYWht1KssvbW1YbbnLF0RkE3l0yxkoVtSMpn+ztEqouQVzpPNAKF56sEsBGCp0Tht2gAW/jNfrUrPCmcniulRFGrcvMJannlsQUrjKsH2LNuer4gA7uPReP64bNwPFtWUXJXXkig7RLTlmG4ULUQHefgomzPSQcnZDK9x5LN9kiw3prxXgb4nsXTEG4Q2CYIsPTseLu1zZzW3RwKVO+raq7zOaqHzj87y3lj6LylftGNRdeq2Ni7mfk8XT2EA61aBscQDtFkmk8sw/Y4HDYBq+LeQocUSeS8aAFxW8pguTq4hYUsnXVxhVdY+kWKLF0tFMqvLRiv6qvtU+lC7Kav8CubxyEf/cTiFFoC3MypmGeGRt8YGJH1KUv0ou3mOBg60fd8LH7zBvOajkO+Ew813Ht76237m+Ikkc9H/B46eeb2n93EJ4aW3YFAQ9DHn+gtKOpsCAVYoDl/9fxnZnPZPPsWjj8e4nTpQnUwOhc9Ozx+JL/gczoX9yEtDE7PISXS8/PHWhpva28Jb8v12CLYlZyHZHzEs3SFlhOmdAoV+bpM4QkZQkPR1KXQNmpVSL6qT9uEPFW2rXEwPA8fs3yL4Y6Iz3t1YqpvYgpDj3sPekcnY+m0Kgae9O24BuHikzEuGaFvx8MUd+tB7+d9oOuhd7Z1tYawHzlORUUxDoOAQWB7IqDGXlhN/dA9HbOz6QxbFTLzPQ/76/axdkV9v1l8zpe4NjlzsrOt3u9lXgNDuXd8amB6lkOU+sYmmb842dXGOs6bEbaNS9cCFKq0qBeNUDrMVlK2ZkB1aiHGRgmve1nnsTXnyQuX+8Yn2WPHeSiXRifHYzF42VajaDtuP7j62cSlp6I3tV1tVV2X8853hR94W+uB9sguOJrBRrV5NQjsBQSsVSr7PMfeGcpVzXvDtTUrbz1g+IeJ/EJMmPvgPIqDzfXbU+FRYF0LqPm8QkL4JJ42NVEYcst81qzwKFkJavemwkOlJTMZduCcGxl9tX+IVVuouMsTU5bZhnJb/oi2u/xCnDtdl2m7fa5j7wqyvtkbtA4lMo9BwCCwExFABjpdNaxSSWeLNGOafy6dt86fdhT5KvSmc7mxaGxkNooAYesel39tw+mMElpAqNiG2o6CLVN4uroqzWo6tbZ+nkqkdAq75ivj7wxEnBsej2cyfeNTbLYTFccoRREaGcmcybEm8/Lz8WXarst123tCXHTn9tcubsFbsTEUSdN4GQQMAtsJAWuN3wrliY5nJ/oywRZHXaeLjXorhKoanYs9ceEyS1d6murv2dde7/OtmOJKSWy+v64FbP08XdutDMbmF7Egh2UKT30t7JeoT8qhFFtRhadv1FBRdqWDzeNPnL/MdnJ22JTGDeMObcctyb3P3lylgqEXaXccf3cQbceZmaC6uCR2V0JliDII7H4EUGJWMy5QUBwoyI0KF5+IXX8l0XTQdeTtwYZut6Xzimm94dkoPTzA4r4FLgK7/0AXe/62IXZCpsg9pfMqru1In2cR1GJgrQUXO4gkStJlpqACS2lUrL2j7SAZW4xd5MlVtV2eC0RyV1+Mc1GybE0lLtqurtN55O0BTifinGh8aCYlzEOFsHEYBAwC2xQBsVlthVuootVzl8LVl+LsWMjErR14hx6tauxxcViuLay8ihSOZ7Jnh8c4hrAtHCwa7JZ72nSeKk9F9BOpWbpuUSWJY4PJVkbhKSL3oIPDoBnMZLauNO3pGNdlxXufjln77RbDMpuNtjv0tkDn3T5GMsXQw95D4ZVOynw1CBgEti0CN3p4ywrIjrup69nhs6l01FJ12eTC4OtJTiBbyAe4Zsi5aOwui3DjBSnPgRVzqfS2VXiUVNd5UvANqqUb1Bf5v0G15yC+FFelbXtV/kUdBFYlKBpg13tCfjk0cjnyxOU0x0NLcGat6/a7jqDt7kLbcd/IUhrSw7M6euYxCBgEdiICi4M0aAG97MhJjh+r63LRz+N6dLaaZ1MLQ28muWaBP7brMZ2xPMbN2ItL38oSMjfjbLlLtIYShmtSIqULKypGwij3upWOpfB49EFIEuUpXQjzVRAAusWlmKvj4auv7XnQTz8PQw90Gw64jr87xN0iMpKpx+erQV8HxLgNAjsOAVsT5rDA+v3uo++y2vbAq5wZb+k8Lo+lz8ftQqzbbGPBWqD48myS0lObTabY/oQWbAz4w143Vw5tE3CU1lCOShWMBJG0pIZD3PLKr5ovLDOvpSFNNd8o0UhUxSdRHvVa1KGHLxpgF3jCYRyaxxZRZo89XHhcU40PSzFZQ7wqPpDPkXr77vXNzy9cetK6K+vY48GWY16n5ybOAhENYi+AuQv4wZBgEFgJAXurXgzHTej1Xa473huura26/krSGuzJV3Gx83ifdXksx2p23On1sCWpQH8hfDmhiavEWL3CRSvP9V1/vu8a+9Pv79n3yKFuTqDWpPVKJdoi/02SXSQrMpZfSz4uPrh5IEz9iqM0qdaJbSoC7qKhCcBT9Cv+RaPsMk+I5OZizgabjCfaI6E721u40YoTVWYSSfzLPASWSbt9d/tcnhqXv6Z+P5PVxdHeZdAZcgwCewoBWrVNVNIJY+k103gcnsmGhKOPh6prq/tfTbB6xZrGm6+aupq5+EQU5ddxYtk1KYIb61ZeHRieSiR7GutYIvdc71XuGOLTs71Xu+sjdT4Pm/p2PcKip3Q1hI88ina+0nPTw6hPynFT4Smvog5SkYTIQwKIj7iVZ9G4u8CTRZifvnCZYxHYexDxeoC13u/jpvKBqdloOmO/r3yhKpPMw4T06m6gtYQBs9Odd3sLWsQuQMiQYBAwCFgIMEjD8I8SiTgbAt6Q14OUmIpxm1Au1OI8/LYA18Oi82Lj6DxEadXktUz+iSiDnJ0nvYFGh74tnasVnjzfx8DS6e5ONkFhZwvQDGwifKzIe+ABT6GUX4WthfbiowNAAAmjB1MBrCFNPhBCeZVwLCZlD6nP/5WIu6M/Dc3OXRqblKvsGEM/NzKOCuQsFfHRSQNIDskcPpNkWUrLcY81RrG8I2erBtoGTSJn2SUWsNZQqS2CnrpxGwQMAtsbATpzPrfL7eQKBUuucpdCT3N9V0M4lcm9dn14aDq6UJUPt7sOPVbN1MbVlxJyZyxTetMDWfp5qbn5/af94XanbVs6oub1gREmUFCZCgBLbKiXne8QalYSgKKnCLNSAB0AgklIW2D7tgQCEU1+JT4RrA75CkpxL2g7cMCY4io74S1+2XiXymQZT9chXsTN2m1z7XMJ9tthuHEhVtc9PvfK66+AlZ4iTQKrDT7G0RIO8GtL1rwaBAwCOwUBGnWd39saDnKUPHP8zSE/OwoiPk+Nv3pwenZ8Ls7AJjZtqNl56NEgm/DYrTQzlGU8EwK5GqzvuRjTewcfCtR327fo0dWzgWBdMMRRvbtCYFgK6ob6tmkpoVrpIIKpAIuRRDBz1671qGDEkq94KtyWKTy14kVlrMKRip4Q/ryqr7vewVJM/QhoVq9wohhw6oTzFhvLwr6cpRKbylXlq859fM7lrWb9lW1vqQUllVFV5XM7j7Y1elyOaxMzXIXFUesHmuu255EKOqXGbRAwCJRAgAl+7smr83tQSGi++oAXMUx43KOzcaxnBCzyJFBXffixgNNX0/tUbLo/g31MGK6A7n85gdx2BWqse4WK3bSgsuYKvaV9TsprZzp0vVVCs/BJQkqYorH4xKM+4dYhWdqWgBch9A9F3bbIRcPsSk/uZdXpkq0IuhebaebGsr3PxK58Jp5mzfHiw2DF9VeTkS4Xk3ncfuCAd6ur3Y7aoHXTlaUum0L+fQ1h7nvk6mR6eH63y+lY+XB1vQTGbRAwCGxXBKyRm4CXP1sBO+tDWM6DU1HMZWQI0yLcAt1zf43DWc0BTJNXM7kUg5RWZ8KKiNDhCllbEstfSYFTL5gGcdZacyHLP+6YN6WcKLHeGytBgGirEjrLUnrFALEUnqSrhygatET2u/gTDAh3sghY13nWSMINmsHP2lR+Jc3tB0NvWrtq5AuT0qFWR6TDhQNN1xT0NQb9GG5snWGdJ+xJyoz1M2lHeO535e9Gkua/QcAgsAsRQK7ub6zjT2iLptJnB8cHpuZqTlXXuqoZHBq7mJrPLbQe9xx40B9qdZa4WkhSuDIx7XY4moIB7OYGv8+hjd3tFPjWpO0AsFDVrUlbLQ1pEkePpruVRtwpCFawnEwRsw54Kp4cmJ5jB54aw1w0w6x82EnDUWHsHuUCBA5SoZ8nuTOGWd/t7HmQg1S8/rDTGuLoaO5ujMCR5uiwClaQScogsHMRYKTntg5GPr1vLIzM35HnsBX+sJh7HvI3dFuG8qqkvTk0emF0oiHge+TQ/gd79nHp9OpxVk10CwOsSdtJudBNukoqs0eoaLIU3lrjqMi73nFxdOLZ3mvDc1Gmixk6UL06IZy+3dxo9vrLCS4unxvOYZqJP1yLjXbwEb91YpCnlkXJTNR11IUYdijWyd71KBoCDQIGgeIIoPNq62v6J2dZ+910yMOZuix2CzY7mASxRcCfsU6rC6fpNIaakvn80MzcW4OjPY31pLaDOnnr0HZgoiu8dWgu8LEjawN6z77SvWPv3euDI1bfruBhVRXLiJm0G3jd2kBKV896qqs8gZqOu3yHHvFzkhALi5mSY+ElAw5+txmxLADReBgE9jwCTGqwknMiGp/NpyMdTkutaSpN4MGYnu7PciBLuM3hCSwdNK+QY8CJZd7jsfj++ojDtTPk+fq0nZCsdJ7e1VNolHYsW6VZOuge+QqInJzC8qexaHxwNlqo7dBtmUR+8mr6zEfmxnutY4EEGY4O8kZq953yHX5bkL2l6vQDpuuMVbFHmMeQaRBYKwIM/OxvCGdyOSbzmD0pKnBmh7LnPznHIrju+32dJ32cQ802X72rh3WeSGf4ZVPT9p81KV/bSUg0HI8CFreoOvlV/uU4Vld4ek7lpLijw6C7ZpPp3olJbl+0hjHTGRs5dOxiE7nhM6lLT0fhQk4Gkoc9pEwyd9/nO/CA3xvh/Jolf04VcjlYnnnj3ZaceTUIGAT2PAIhn+fu7vbO+vBLfQMjszG1RECA4dZoNiqMnk8lpuejo9m5kVz3aV+k08XUibKqUXUjczGmYJjGaw4FQp6CQ552IMi6XrQVf906r7jCW4fmtBVoh75mc7kzw6MfPXORVSqMjxdSwZYDDke4/HwMtSfDmOgyzsbkUisWVsmt5SoWWi7gcTOljNWlPI3DIGAQMAjYEMAmbgz62Jhr9duWxoysIEvAUnYAAD/JSURBVAgZtisMvpXk/CZe0/E8wicxldt/2td8xOOLsNvJMqZReG8MjnAaFNN4p/a137u/k63uVvxt+UgnSrSM7d4CVV6l7Qgs4dUnHPhI9LWqqiL34amc9Az2iHsynnz52uDwbLSotgMEpo6tC4sTS0YYFpa/3tF2h+fA/SysctPPE6Dc3KjgcLDngJWZLFrZPld47JF6NGQaBHYcAkgJVrUtSRCt9CyOY9U3CwKyaWtvlFwqZPX2xnIdJ31sTkfssKuP/ewSKZZOsyz8REfbdj7CQggVdVWo85QOIpiE1PBYcuK/Vm1HzKV9eCpRlVNhBrveB9rZ13JtaiZbbJWKkO8N17LTgKOAJq+kUX5ss2MYk/PDgk3LznttDfu7G+sifg+HxnqdizbYrofPEGgQMAhsDAGvmzm4Wo4kU8lgUrPYm9crL1SPXkiz5Rf9x7oBTmZB580OZzG1mw+7XdpdeoPTcy9dGWgJBbvqwtt5MkWUjigtXecpHUQACaPQ0B18kri656pua0hTokn8dSRRIg8pulXqIoZLiXi34BNFxUo6MzTKEV83RxRwLbe4GEBoOeqOjnmzyXmuPjj6juDSMObyYH6Xu70uxPDCtqf7FkBtsjQIGASKIsBy7uGZ6NhcHKGMzET8IJfcgRqMbBaquIOxwTeSqVmOabHkNEdusieKlQQHHw10nvAy1GRt3auu4qCMwdk5ri1rDvq9zm29OFz0gkUMg2f5PIv7cMurpTNWk57lhLHhvDSHp7KRzxVZVajSFMc6Cmcr6ya9wh+c0MMgOKjTvUvlFs0rhg4yC5nkvNtXyyEIetaLV7n60XyNPW7GE/SLPFQwdtxhW61WXyq4cRgEDAIGgSqm8Th+jCOnc/l5dBU3JLBuDkOc46GRNp5QLZN2A68l50ZzcggZM3wzg9kz/zc7N5xlfXhdlwvtyMDoZCzBApbWUKAVq5tFcyUP5Ly1uIuUFCWHzpPClKksygymE2jtw1PZyIeKaDs9D3FvT7XHAAFnqdCxG4vGWB/MYT+UFgOKSzomr2RmBjOtt3nr99lPPYDtuNFKqspShqxbqa3lih+Z+UPVcWAmq4MLQTA+BgGDgEFgJQQQQZw6Xe/3sjmBCZGpWPL65Cw6j7tUUH7ck3fbe8LhDtf1z8bH+zIsY5E7FjhvmpOeZkeyXXf7OPIi2OTkPERkGorzcEvDoaYGunrWhnQRWCvlfev8pVyi8yjFOtRY+WW3eni6zqugtqPcOg3i3j5qj44dVzLSt2OVylMXr3CVuTU6vlDF0T4zw9nhN5MDrydZigkzYTTBQ2oFsIArlcStVwEXyq6mMeCbS6VhUJJlTTDHBaHyyq8GE9IgYBAwCIAAJ8hzf55Awd1hrPFG4bFF7+rEDMKK9Sld3BDbUNv/WnLojdTscIY1LATmUMOxi+n4RG6mP7v/Pl/zIfdodQxT/uzw2F1drSc725he8TmdyCV2SW1DS1zXeegIed0Mflga0hSdV0FtJ2VVOg+HuLeD2kOvzaVSjF5em5xhRdPF0cmZpHVKOeMD8anc6IUUNxFjQKWjHJ5ZNfQW1x043YFat9/aWsBKKvYYsKqF8PTk2DpzqLne43JykEo8neWIIK7NYx8Mp6tYdyOYxyBgEDAIrBcBuSATUYPMYU86F6pYYsdRzZiTL+IItzi5enOsN5WRnXsLXMY5jw+SiqkWVhiQ7UQs/nzfdc7b5IzplmDgsSMHDjXV049cb4k2MR4KgtRFQehrWCqb5ZLCI9GKazvSFCUnZFgab/GBJKFKOcS/soStlBqjjqNz8Rev9L94tX86noSB6JPNz+czyTzTv1dfijNEznnQakd5bHJ+9GK6+ZDH5a1hZq4l7KczB/PRO2SQ/UhrY3tdEC1IXQXcrga/l1vyGD0w+xBWwt/4GwQMAmtCAMOai1aY22NgM8ZRGCxjcTvr2h2ROnd9l6v3OWslC2NRcuQTF3AuGug3N/4iqRJTs+R4dWKapBh/4kJaS7cgdtdUjs0PLCUS7bBJOu+mwtskcqBBFJuCFweP0nbkqwLgv0nFIFlOC+MOYk6c+9iZiy9fG0pms1bWefa15FngO3oxdfHTsdlBDk+xhgisp7qKvS+BJgdD5x6Pg4vJQ37Pia5W7q6jGxdLZYMel9/jgoeWgldXc5uduM2vQcAgYBCoFALcHXagqT6VybGGkwGqtrpgR10Qe73PN4WAqtvnuvpCfOq6dYXsvtM+tjEUnj1tbeDL55/pvcrY5t372jDW+cNNz++GAKtUYTeUjqiAzdN5W6TwwAAadH2Gm2ez1R5rL7GJuL2O2TlGtNmbSe/+9YFh0XaouvjU/NTV9MAbSa74sS5uvaHsWODrCdY09Lj3n/KxbuVIdx0LqFojgZZQAK3GUAMb7DZUsSayQcAgYBAoGwFWstzZ1dIWCSCiOGyaI5wONNUhQtPZse7TVaEWB1sUWMbSfZ+f/Qm2VJnhSyfyHL/p9FZzjNRbQyP1Pmt28M6O1rZwiMkXtqh7uXx6e1wkAFGUf5N0nh0aG1JlvkrhpKCFUZRiswXQtZ2KJZ6EtAVWAcp3MHp5bmT83PAYlhGqbGB6luPm6OCTBd1/mGPqamb4bHLkfJoBAVnvROIsTuGQOo6qa7vd03HCG25zYgN1NoQYvUTPlZ+7CWkQMAgYBCqFAFog7PPwpyfIQU4jM1EWcDYecLFRr3q+xh26ecCmhMTYZwHn8Jkkx7U0HHBz99C1/Oz1qVmmXVjH0BYKIta4kvqO9ubmYGCbzMWI8Be1UtmxzQooPF1vFdVSeErR+VUB9Fgyfaj7iHuD04rTydSTFy6fHRqjn6e4ZIGzwaJ5zikYejPJ5ByHscoyJwlAxw6G6LzD136nt67bybwdA5uUednJ5Cot4zAIGAQMArcOAVZddtWHZxJpFt8FG5ysoZtLpmcSKeSnKlQ2mWflXe/TMdYlNBxwcVBG00GXv8Gx4K7qHZvkj0kZVB29qsAB66AXdkSwqgWHmqxRSW2lQzSFEMKvUhwbLMNGFZ5oJilEiTLxSUIqMoQSIiqtxicelSDuddCGscP2AJmbffX6EPO0urYjQbr2V1+IcQA0Vo+l6m4yRhXHhrG7k1NZb7+3vsZXlchmrKFQa6Gwky7/ra3+dUBhohgEDAK7GwGE5P6mSCKb5Y4FZuO4aHp0ltUFOTYwKMJnhzIovPiktRCPYa2J3nTTITdHt3DfrHXNkLMaKccu5POj4wxysi6GDVo4jjQ3sini1m4mVipAORRR63ZsSOEp5UT2Sm+VLorouUJtp2JB2zrI4wY7rgymmtlpwNYTLJQjzQ0fP3tpOpFUKYvDut9ncp4xzFxqSddxjx1LeDF59t/jO/hQINzsOtrVkMnm2PjC4hQKw7wdm0C382kFNhrNq0HAILBHEGAxwT3dHYlMhhk45uGwzmcTKfSftfg8v8DyBaZsuEiP1Xk8SL/EjLV1YfRSqvMuX9ddXuZuuFG21ll1aXSSVQ4c0cKiB25aeORQ991d7ZzVwr7AW2jrr0MXlK739Su8NWk7ym1TdRSrTB1ZmgC+simOjjk7DbjlgNOfpUv36YuXrYgoteUdRbpxHEbAxa3sOaf/Zk3XNbtaj3oO3BfoOuIP+F1cKMV9jNZOg+rqqViCew+6m+pYznQLa31VBEwAg4BBYM8iwJ3p4Rtr6JqC/js6WxjqpAMwE0/NJdLBekdTt2d6IJOYtbYuyGAnB3IyyDl6LsVNL61Hvdy0no3kJ90JjiUDRgZFP33hMkL1nn3tp7s76eotF6I7GOl1Krw1aTuBR+k8ed2gtqMAycVtmKTG2stPnut9a3B06RhMvDgwJZNnP2Z1bZWHbXKLtbhUjJrqph4319flkgvhsLv9iPfIqXD3HcFgxNUc9qHtZACT0vpcrYyOcjABO1fMhXaCnvk1CBgEtjMCCK6O+hCbgzkHY2gmOjA12/L5gTvvzPW+Onfptdmx/pQ6kAwhyQVD0SdjI2dSTYc9XLnAfnZ/fa3TZ53GST/v/Mj42BwjpbW3t7eEPJYQJPHtTHs5ZVuPwluHtqMousLbiLYj92w+PxGNc9uhdOb6xqcwRhjVJBfsF45VpdvOshS6cdTfgQcC9Or0fp4nXMuhc23t/gdPdew/Fmhq9frYk1IwT+tzu/grB0QTxiBgEDAIbB8EELYBj+tgS11zyMcS9Zqj1fecSLx+9/iFV2auvxUfupqIzdzYcMyxU6O52GR87GIKhdd02M1KTjY5cFwL599PJZKs+7syOXOspZGVnBGvBznJ6NctX9KybqjXrPDWp+2kfErnkcj6jAXrWLmZWXZcvto/3Ds+yYIiUmZTHWd9MXjJvaxMzk1cTmOzTA9kEzM5aq5uH5dF1bAHhZDWwqPqaga7j90dOdTYcFt3k8+zra/PWHe9mogGAYPAHkeAK1sYshIQ6vye9pbgw/dlhq/HX3xq5I0XJgeuxGNzS2qPuT16e9bBipfSkTYnJ+O3n/ByaAtxr07ODM5E3xocafD7DjU3MNzFrB6XMHBcC2dLrU+M38J6WZvCK1/bSUhLvWi9YNz4Q235Co+9dLJUkjlYDvTiCPBPnOtlKQrzduLPZCy1xc33nAc23pfufzU5fT3DAdAySRudmB89n+o44KuLeLBK/NxBXlPjczs76kJNIc5OWRv5t7CeTNYGAYOAQWDdCCD3Qj43fx2tgdvvaLz8+OyTHx343HOjI/2JVGJ+nv7CAoK0KjU7P8uNepkFfeySM6omYgnWszCWtrhDq5qd748fP8SqFo6AYWkMntLz02Otu6ibGnFTJL6uF22lL1Pnoc+YkOOXw0+nEgkwZRnSK9eHueRJhjHRZ/O5BY5KSc5YV92PX0oPvpnEcfNgsMWMOWIgOpzr8EZOHWmpD3qpFVt5zKtBwCBgENg7CCCBfX7HHfc0dB8Nnni4/sUnxs68OjkykEjHOXrR6o+wgKWua+nsaQUL8jaXXchWzdc4qpjhG5ie44aZWCrDRnh2QdCN6IyE6fPd2iWdqrQlHGtTeNJdk17aShvglbYjsITXs8dHovNb+FVCcij49enZvvHJaCpzaWzi8sSUDF1aX7nePrdAB47bfmNj8zNDGW6tm7ySZtJOunQqL25t9fhrw83Og0cj7fXBOqbpjLZT6BiHQcAgsLcRYEX6Y4913nu69clnrj3/1PDAxfjciHWv7OF7Qw1tHjptIqgFJGaLJq+ysn3B31DrjdSyuP3y2DRL4uUrovVoa9P93Z3djXXcvedxcvP6Nn3WpvAgQrSUYFGo8/CXTwSTkIV04y9h+JUwdJlvnHhJ+lWD03PPXLryxuConHh5M4XFW+1ZjTJ1Pcvv7HA2NpazRi+XNtRZAYnu9taG693NXZ7OY/7OI/47TzQe7omwKOVmOsZlEDAIGAT2PAKIX7/P+dDD7S3d3uuXo9PXs+mZ/NEHwzUNeVZ4yimMgISAjY5ne5+Js4edveps3WN5S6jVyWJA1rawdR0BfnF0fCaRZMvy6f2dHZEQqyV8LhcDnpw8zOLO7YP0mhUeRRctJUpL13n4iCcBJExROvkkweRrPJO5PD7FbnE6dvMLCxgLw7NzDBaz6dsWnViTVzNnPzbHrfaZ+Ly6wUcFC4ScLLnsORo6cX/j4dvDje0er99p2RssqFWBjMMgYBAwCBgEbiAQ4VjqHtexfY0MaeYzVV6/I5pNcbV1/+QcJ5YxnYQ/18jMDFp9DGTvWG8aVRdsctTvc9d3uziLkdd538JAdpbzivlj1zKXYu9viHTWheu83tZwAB8E+3bYyrwehQdQos9Eb4nOwy2vlq4rptLpiDH9NjYX5yAcojCJyhISNBzXFzzfe214LsoylMUqqLYgnse9wLrYG5UiX6q58JfBTK5mVb06wmBCBMKO1nbfHfc03v+21kO3hcMRl9O1rQyLZXSYF4OAQcAgsE0QQA9xdCJ/VUsrOqvcHj+zcShCbrSmHzI1lp7tn2U9CzNKPJxRFU3lYuM5ziJGIHO8PmeVcSgjKtATqh3KRmtqY9y7wCp6J/vPampO7evglmy5ighFyDb2kNd9q25mWKfCg2zRaqLkUGBSeYvKbpmWQo2xwJKJTZZWMub7qfN9gzNzeNLv6owE07l5bjCgR8wMHOtNWG9pzc/F8qm5eW+oll4z/WVJeTHHqkCDo67DFR/ncoMqh7PG43NE6t1NHZ7bT9W/671d+w4EHY6bNx+qiMZhEDAIGAQMAmUigApE4d3W3oSioqNy8eJ0ry8xEkzXVucy6fy8de+6dZMoSwL5G4umxy6muXiortPaxle/n93rDo778ATzXMvH5TMceiXnXpEsqu7+7q6HD+1vD4duycDb+hUe2Ok6T15tfTu2DrCetZ9+7swstxboy08Ysbw0NpXPLrD4Zz69kIrNcwQAF7HOjWZn+q0pOq7mOfn+CEPGeiX5wo6u44HMRBXb/tu6/Pt7gkdP1h0/Wdfc6jOqTgfKuA0CBgGDwEYQQJhzsCIpHOyOvO8ru3uOhAd62bQeGx9JRuey6RSTSjdXT7CeZexSmj/6fHRUUHtdd3ubj3isC2duPOhJDi174kIfg3zvONqzrz5Ch+/Gxy36vyGFRxl1nUdvz6bw6NvRsf34mUsDM3N04wiPacCI8Hw6z1YPa/PcFOc4Z+MT87HJHOd585uJL22h4wryXHwh2LZ4ok1VtWzfY6vj/sca7uzKNjR6e46EOvcH3N7tdWPvFtWbycYgYBAwCGwJAoGA64GH2k+dbp0cS17rjfadn71wdqr/amx2IhOfyyaTyzQfV9BMXcuwQ4yJPSb5XDeGSaWkCP90PPfihYGgy825LY0B/5ZQcDOTjSo8UtJ1nr6GhU9MU7Lbn8WWmfQ82xuzifyikstxHgpDwPwmZ/NMyOHJZgMZIFZFQwu64s6THdYNhVxHh3XA43U5fA5X7QM1bveyEzJVLOMwCBgEDAIGgcoiwKoMl6umrdPP34nTjaMjbUP9sYHLsb5zc9d65ybGUnMzmTSaL7/U5/OEagKNDnp7tmLMDWfHL6fd/lR3aPre7hTzeVu8kqUCCg+SVtJ5rExhiU5TMHClb673xejElQwbCdjSwcivNZKZtSs5hY7TVROKuBodgc6wtQIFf+nh2XqQKrxxGAQMAgYBg8AWIMC+9e6DoX3dwcx988lEjhHOC29On31tuv9ydGwkMT2VzqTygTpnqMnJHJ6tPGN96YtPRun83XNbioUdKEj9ZH9b4M14rYzCo2Qr6TzuEmRx6ouJoSufse5ctXXjhCSu4mGlJX8uT60/6AyFnS2d3jvvaTz9SIvPt1RCy1QotvhzM0AxaRoEDAIGAYPASgggjRHXXp+Dv/pGz9E76r7wAwtjw4lXPzv22osTHFfW3OM5eiTobajl9GPrWpvFrl8um58dyrJQI9jsrHIsLPrenAVcKa/K+ldM4VGsojov4HIda208fqzxheAkx3IzLCkEoORYZklPzu2pZf9cXYO7vsHT0uk7eDR09M66dibn3GZfQWXr2qRmEDAIGAQ2BQFO52cVYVvXgfe+v3tmir0M+XDE7XBVD01HOUhEdN7AQDQzxxKNBTYwVLkXOD9LqYNNKVOxRCup8Ei/UOfhc6y16Yvuyz/TMzbZnyYMGo6VJoGgs6HJ09TmbWn3Mi7csT/Qsd9f1+jBcChWTuNnEDAIGAQMAtsdATZGI8ZVKbsawp31IVZgcDDyU1PX/aEJunfhDmcNCo/d1jf6Pyr8ZjsqrPAorq7zUOC8ctnc6QMdjz7WwYCvP+BoXZz5bG7z1jW66Q5HGtwes9Jys+vZpG8QMAgYBG4FAqgABuusTXgNrsOPBuoOO9i0sOBYYN3+blB4QCo6z+Z4xxd0Hjtd5/bUWCO/fofLjFjeCuYzeRoEDAIGga1HAKXgCzpbj3j9HdZ13GxeZ0hzlyg80FQ6TyHb2OJ1R+yLdtRX4zAIGAQMAgaBXYwA28xZt19Ta61cTM/nuABuGyk8mU7kl8sBuVG8UIGttWKs6+1y7LYzj0HAIGAQMAjsOQQc1VUouzwHtHDvTTofTSRS6YzPsaHDVlArauWLcpRAtvgcXiaTkcipVOrSpUteL9NwzhKplPPp0sREIpsxCq8crEwYg4BBwCCwyxCYmItPDo5PxZOy//pCPtWYitX7vRvpTV2/fj0ajQIUHTOeVXVecYVHEvTqiDwyMvJXf/VXdXV1GymTVFs0w0nRS2dM77KKNOQYBAwCBgGDQGkEmLSbpVN3YzfCNZ/32ZDf4yiug0onpb4mEonLly/zSt8smUyqawxUAJujeGbpdFpiovleeuklWxzzahAwCBgEDAIGgY0gMFRVdXYj8ZfHZWxTH95c/vHmW3GF5/f7u7u7iU9AF2eocbvRFj70LPv7+xsaGnw+38Z7lltY8A1lhYVx5cqV1tZWwN9QQjsnMiQPDAxQ0XuHZConFovF4/FIJOJ2u3dOXW2opDMzMwiTUCiEMNlQQjsnMkJseHgYxg4Gg1ssP28hSFDNGKN1HGQksjXFIEcm4BjM3L9/fzlQL7t8XBWRNvn666/Pzc0xdVdfX0/L3ErFAwEf/OAHv+zLvuzEiRMbnztURG1zB13y7/u+7/ve7/3eu+++e4+0EIYjfvEXf/GrvuqrqOg9QjLt88UXX3zjjTfe/e53Y1NuZbO6VfyPWfPxj398cnLy7W9/e3t7+14gGaiZEvq93/u9kydPPvzwwx7PzY3Yt6oWtiZfhgZ/5md+5h3veMfnfd7nsSRzCzIFZ1gL4YmeOnToEL+lJUnxHl4gEKCetqC4RbNA4dHROXjw4G233bZ3FB4D0E1NTUJ16TorCtpO9KSjoyp6j5CMwpuYmJiamjpy5Ajtcy9If6xvFr7R1zl69GhXV9deIJnGiCDu6Og4cODA8ePHWfS3E5vnOsqM4mlpacGSQ3RvjcJbayGLK7y1plLZ8Mi+e+65h5GuPSIEBT34AyMDqveIRIBqh8Nx6tQpjLK9QzJUY9ag7bApK9tqtm1qVC4dO+jdUzMUyK7bb7+9ra1te8r9TeIWiL333ns7Ozu3bYsuPqS5SXCUmSxW8Pj4OAOyDAVsW+DKpKX8YFDNoD8LYveOPchgF90dpnb2zpgP/EBXHkMYBbBHRi9gbLry9PPo5GHilN8idnRIqKYfD2PvKTUP1WNjY1Q0z/YU3dtR4e1oRjeFNwgYBAwCBoHticCWLr/cnhCYUhkEDAIGAYPAXkDAKLy9UMuGRoOAQcAgYBCougVD6ixdZcOD7IpnTJ+5OgZ8yxncZ8pndHSUiCvVG1Omzc3NauaPXKanp5k8KAzPThGecjItjLsOH4a2WYLPLn5ox802DyaumKsrZ1UO4dnGBC1FCSEdtrwUEmIDmRkjnsJg66Cl/CiUHJLZ4sKyWwb0qRcwL3+LC7EAjerGQdVTuaRQdGaXAFQ0gcnRVjxiyT6/Cs4okAulgjSm4nCzt0xqk7xsua/0yqY0prVAhrV88ACcQAqkU7SQ1Dt5EV4CMycECCsFXinHDfqDv5AMX5GUIrkcBqb8xKV2iAvh0AgPwI0QUogYS8whluwKC8ziJggvjFIYslI+FIM64oHBoFQYuBzkIZk2S8TCNgv5NFiqu5AQ2Ilmzi/5Mr8rgrEwWKWoK5oOBV6k+CZn0mYhuWhg5UkrIBYkw6LKU3dANeSQlMxbE4wJzqINlljIcNhDj15B95YqPHChRl999dXnn3+e82BoBjAxW1Ueeuihnp4e+Kk0YbDdn/3Zn509e1Z2xBcGZsXHD//wD7P6WQTHZz7zmX/7t38D2cKQX/iFX/jFX/zFW7M+EPZFT7P7iodlKbyyFv/06dMPPPAAi7hWVUIwx6c+9amPfOQjs7OzNkJoDI8//jgbFpHp6hMgIzJee+215557TkAGljvuuIMloIcPH0bWqJCb6qCOOD3gmWeeoSSsTKGo+/btowzsMixn/S2rls6fP09d9/X1MQ2OrEQ+sqgd3O666y6WPuu4DQ0N/fM//zOb2xAWNqIQLt/yLd/CyrFKEU71UZ7Pfe5znEDEHlsEBIUhfWqTZejlrEOBlt7eXpjzzTffBBm0HXtRiA5dSASbCqH2L168SFWeOXMGZQAVbGYAxjvvvLMwsI32Sr1CI3z72cVncHCQZOFbKuL++++Hk/WKKMyRGoHYt956CyqIS/MHIhCj/KTAqn1bq/+///s/uB3pWZjU13zN17C7C7lZ+GkzfJA2V69eRVKxIxnkKTZbm4WBYSpbNdkKAJkf/vCHn3rqqcI2Szpf+qVf+p73vIfqU7FgKiy2V155Ba64du0aWTc2NsIPDz74IEv8V9U3Kp0NOuBMJAbMBmciNmE2KuiRRx5hm2xpZqOx0xz+8z//Ez4pWgaSQlIhdVFmBKB1/9M//dPLL79c2GD5igxHIxRNZ+OeW6rw0HDwwZ//+Z/DSTA6QhAfRPk73/lONlyzire0vIAtaDPs6bEpPPgDkUcjIQXcou2Ahpb2v//7v2RB+7SlDOK2RDYOZdEUUD+cR/qhD33oX//1X+EhpDbBMG3+53/+5yu/8iu/7du+jSW8pRsP4ubcuXMQQlKsaNflC2540UYIXQGkxl/+5V8iYgCZMHAVsMO4P/iDP4igsUFRtNgb9KSoVNPv/u7vIrwoPzKd309+8pNQAclf/uVfDt+raiqaF/hwiCvVTflp8ECE6EeR/8d//McHPvCBr/3ar0X6KOMXsYKk+MQnPoEktdmGCA4YA84pmss6PFFR/2/xQe1BF1RQmx/96EeRYt/8zd+MeFKlKpo4OCD9//iP/xhTADcVRPWBDIX/ru/6rve+973Y/ioiMKLFf//3fx8ZhBupQRQgffLJJ4ER6Y/kLQ2jSmrdDvKlcf3t3/7tv//7vyOURT9BMs2WEwO+8Ru/ETVfogycpPOrv/qrL7zwAulQj9QmdUF0hOPb3va27/zO78TehS5VPEQtvEpgWN0m6Gk+NlZXsSruAGcsjD/90z8tZGDK/P73v7/09iFaHITA7dCLVa03cFpfISEAC7x///d/jwkFGiIYacXoRbji2LFjpZmqIuSDLbbpH/7hH8JsJCicyYkBVDQkv+997yt9ojI6HlXNYysMpNFSMFPoh6jqo0li/X/sYx+D23l0fIjOV1siFXzdUoUHE9B60UPvete7EFvoIcimmjHPYYsf+qEfQmCVoI06+Omf/mkEOu1BBcNNV+A3f/M3sRc4yoEUbM0P2/lHfuRH2AmkouAgOx5bSD1ApdywPhyDvEAof8VXfMUXfMEX0AZgI7qev/M7v0Or/rqv+zo4qZzssI/orCDBVWDKT1y9e0dDpQONSYGgxBrFKIZwkEFEI2IQ0D/5kz+JUN5swmnSf/EXf0EbRiIjEx999FFqjVpGMfzRH/0RdURLtmkmRZQ4aCRoODqmiEVkIgYm/UWMBgQQKdNIIA0obIRwysN9992nJwXaZKeLVP3rWt3A++lPf5oCMHrzJV/yJUgBeBJ1RW3iCT+jiSG5RLLoS6wfZDqGDoHp5WAU/8u//AvJ/sEf/AFaHB8l3ehY0F4ITBcQ84h+JLD84z/+I10HrAFqFmIrRdpKZcZepNZgYDgZBqbiaHGIqv/6r/+iwFDBAEOJqsRGASuQobNCj5BePj5PPPEE3IiNj6T7iZ/4CajTc4eixx57DFZHler+NBbqXffZPDdGKnLpv//7v6lN7BgKD0tTy9T1b//2b8N44EBrWrUAMD+WkI4PHEt0vXsHn2OuwRUMZmDEoE0RTWgduB3YKcB3f/d328TXqvmuIwDtCysZLcs4Co0LPmRcijp6+umnabOAz/kpYu4UJk4r4yvGNP0N/SvGDSTwEJ0N+DrVBINM1Dk9P1uyMJWeSIXdsO/WPGDxAz/wA1Q2Bj5CmWomX2w9mi4mDE2dNk+YtRaGdAAUNBH9MCjNUqWAsKClYYfSoVSeW+xAGSMRqG80Da1Icqfx/NiP/RiecBUqX6BYqWBA9Au/8At0iVDbCMeVgok/9hRCn4EmtCM6D5MKf1ClOQERHPYP//APYjGUTmcjX9EK9M8gjbrmdCWKJKnRXcPKoQzIMmAhWIlc6PGg25CVehhw+/Zv/3akHkKE8R+FG5YpYoKZYCSpHr7ibvQN3EvF0VfGbhMS0GEckIYopw/NUGdpukCGQyioi7/7u7/DBqKECAViUX6s4J//+Z9HykixSYemwVA/geFwFZgRNnQt2P7yL/8y5ak4jbYEGSdAr8NRP/uzP4tMpLQEoM/34z/+4zQuxmZKk0zTo1WSiKosokML1h4D7DADXXa91dMukHecsce5sraSbNkrRUUfY0xQp3/zN39Dh0OyZoCdakLOfMd3fAcUCRRFSwU+P/qjP0qbRTvaeLgwPGIBegETzUq3UviHDhNxgYgRbGwLBhsLI1bQh/ShlOEirGE4U4kImA0bHYZnmJHRzhIkFy0MFhu6E32PqUQjVdEvXLiAWKbPh1WBfCsad5M8t26VJoMbDONgvtFIGBrGKEB1YyUhJjDhgQZpRUtYqz6Hn4ASMcGZHYiSzTZ411Q8eJeGwRAWtiq2m+rJ4UBmYbXBQwhu2GtNyZYIjARk1oEACCksNekrMIrCyY2AQ0tmNAwBXSKFjX+CHPqUCEem6zDfVI8HeummIOPo6EM4baxEXkSET2wmIbgx6IccIXEoVSMkJdKp7CesE0QSsokuCDpAhmLoYfNKNwXpwFe6RCtlCj/QN2I4nb4OZwmJ4Y/JT9XQCkAGOSvGGSkgZ9H6tAsYm/Ayd0VgVCDWNNqd1iTacaXsKuJPVcLDUMeAAVpWutTQTs8bfcDMDSRjZa6UF4bsF33RFyG4pb1LMEwW1AmEIOzo1mzqENZKBSvhj7KhKrHPqBSQB2oJjF1OO4InsdfRx7SmEomU/4lhQBKEGahWlL0wFdUN/6MSUIdMnmLqlZ/gOkIiEyCZvGh3DInJzAvp0GnDBynNVxrdmlocGgvhJtepMjhBqxHmWUfxKhhl6xQewoLWi7SCb/Q+LHVMc8KHvvNaFR6Ywnl0ZWA+RDwNshAaGhVVRaPlYYgcBbmmaitMsHwfSoW2gygmF5ERaqiKFDCm8MG2JUCZDZ5gtA2ogIegiGaJxWQrDATSUNGvtuUA5AXsWANkJ10uW8QKviLQkdrAjhqw1QhijpLQrihnaYW3UnmQC+hvapCH2rcFQwvS8cJ+RIzSG5buvi3MRl4ZekL0wLHAq49oIbuR7LRnWjjwrpQFn5iOJZh0btTUBUlx2Bh2NIXHLhRJSl1TywSGVdD0SlggjAgMsCRFg1opr0r5Y03SZDD8sZ/UpBqFgZ1gMzgQhUeAtWZHe4cbQQA2wA7Qo1OtDHvqrE4LsoXRw1fcTXY0MZiHZSM6A0M1Y5swMOoBDi/HTgUZQtJmpWZpwoVtlnqkycA/gKwLRpgKkwJDgZ7lZlc0BRAVzsAMBCpIIRmVj66iNcGNJYw5FUU5ABCZT2cXS5cujTL3VQDqFCRpqtJgEQukX9ioVfiKOLZuDo96RQhiHzGngsxSpYfvAZRmDNllin4VF9EAN8BMtD2qStliKgAORDyDP4SkdQE99jJTSkgcclRCRA9fQTc1CrtT8eQL4UrAkQWCW6w52IgA5WTKzD96Ah0JetALI2J00yr0RgLX0g4Rx7CXrl+hlJCQjLzmQVvoVVBO7uWHoZHT8yCLwhMj6cRQ+4hIGpiI9fKTJSTCAiZBGtIm6SXoBEo6f/3Xf82ADGzGV8aC6IVQ3dhYhSHXlK8EpikiuWiTJEj6em3SyUMyAimsSPFWSpzqQ+dRC5RfrzXC40OVgYmIFVQLDpJC3sEnRFFpki8wkiOF2eyqhGQYmFJBMhyrkywFBlg001qbLe0COYiwI0HS0U0HyCQ7Oo5IWKob8lG02ElqIfdmt1kKAP/AwNQmVNtGjGhEjFhQy0jncpotHXr6Z/AMNKK96DxBCA5lOpAdAGK8wj/Uqd4PptIRjPAJnEAAxQCb4SB9miQ5Fk54o4bhTOwwrEmET/m5QxdjOVgPzHfSGAsFDuzNvD6zhtQ4PVpkMgKNuqYMFWmwRYu6dQoPDoYwmg2w6i0HDoaHYAiYDFaDy/WvRQutPJGtGN0IESaH0AE2mHhFzVBJtC5ywYGoBV/MtO///u+H84oqSJX4xh3QgmnGL8Wg5ehtFTf1Cn/DEBi5SBb9qy1rgsFzgAMhfCI8djeTHwh0JpNgESU94Vq+wj2QZoOR1ksz4ytwURGF/GfLdN2vlBNWBnzKbMuFIiGskXcEoAxrygKIUBgsoEC8spiF6lbSAehAADwRDeQodsazzz7L+g5WM37TN30T5rONN9aUtQSmwCgYigG76gKLr+QO5pQHoVBCDspXAqMvVeElcThE2gVqgBR4pZoQlIKYLTsaC9lREgJToTaQ10HaSlFoMhQDeCmPrcBSBlCFw0uQXDRlis3AO6oUGcdwLoSrYCQIaVhLSAPyhToG01i2wzI31goyMka+KvBmOEAV2FEAlIrH1iqpOCkeAUozMJWCAoNhaA6kCURMdrLshYGo7/me76HXruqUMOBMsjCG3mbJmhTwJK+1CsY1IUPxSJ9mhXAG3kKS8af8tFnqpcyUEXpoOywDKhQ1hsWvRyQL6CJZaMdAlwYLS7DMjWU+PNgEG2+weo7KvWaFRzXDEGCkkijhgCrqVRCEMFDgVa9UiYsn5JEm/F1myhKR4TvmGGiKmE5IUltVIRNlapShcBQA4oZ1EKwa4JcyYFrS2MqEFZIhvJyykTJUUyQKQ3gYBR+431Y2yg9v8Qkegt0JWRhAaCQMQ75f//Vfz+IFDCUUJ2KddZ5obqQ/YX7u536OIVORR5RTQJYCSAryS6kglrwAmTD6p5XctAF4caWvuj/ZSfp4CkWQXBRbyg9FFINgJajWE8dNgdHlrEJizJCOI9MbqDfSkWBULkYM7UqGjkmcUW4WhTNhyTJrvqLz0PcrIWzLa6VXqpIyk4iQoAfDU3gY/EsghlghBZApbAX4SA1SO5IC2eGQ7GxIElI4igRLZKeXcH1uYXtyLyywIlnKWX76yAGWp8HA1D6iDZ1HUio6r3hSj/A8ONPA6STB5zRbXhn1pfZVvatYlXVIFYBwYSOS6iA7eKxEIwIuSEBdUVp6SBSYSWsI4cEI45UFaIoQQAYKsiukC5IBnyqW7AoDVIRwCBGSJTtbmmSKPyVEAJYg2RaLrggKDwMd1Y55iumgB+CVASpGjMVyJWUCI9BYfsx6e6BgbRoNVo9SKfeaFR52GbYz2n7VEoAUg4eIaaqfwEDGLxzDY4urPAkjwWwBir4SksW7NAn0FtxDrdiCsU6ExYqKS1B7DHsS8jd+4zdYIPP5n//5GP6YbLZYRV8Zl2BIFrYo+lX3RO/KqAWtZZGaFS0DoVrClKAa9FjnCRWKEKZPyIJxy1/7tV+jg8vcJwYR3SkpxkpJFcKuF7uoG0EjfcqiX3VPhnrgYFq4FFLKUJijXtF69NJumhnGCiukWaiNlQAa+rw6calH9nEiGlSOzBkAEatbWSJI/wB1CD7Ch6XzKvF1JaIkipBGUVfCn2AlPqlEVBhxqFe9YIpMvhYNoAfeiLt04lKM0mFsudOCGJlnQSBDgrRNBrsU30pIDDvqkUdekR7wFdyFrQM30s+D1W3S05bFxl+FIgWyLcFyqIYoTG2oUImg/2BCjOw/+ZM/weBmehtznF6dSlyFVD448Czqr4eprLsi2QEgakJWM7HMB0llKyRDtax0XRRpSzarHESAtqON089j1Io9ZmIC2uJu8HXNCo+ZA/ZjMj65asbUN8Y1zCqCBjcUiilhiyv2Pl9RWiIxbQGKvtL/wITHwGQ1IAP9hegUqkB6IeCIwsbgQk/Y9vkWzUU8yYiaKEfN0wnDNqFGxTwkR6q/qHEkvQHMGfApQTUsWEgaYLLeF5sIKhjz4dQYERzoA2AXPG2SSLJbE8joGDR9CVjUJ5ZywdYoe3woLRTRleFRAcRBkWAAfqkawccWoPCVwAyaYeCzRh91AtUsccbS11tmIT6kQxeBjh3jSHSIWYOgDyIV5lKOj5SZMkACv3oUoQt6kcVFCyOB+UrtYLAX8oOqMqlBwqses2RHRJUjGZECmcIGJbJT4dftoDDwJ8RSPLLT0xGS+aQKrH8t6oYQ2IlN95jzSH96cvCMjfMLjRK0AssXMW3hAebjcW+2wpOKlhqxESK1j2fpNgtRNrqIwiwdWhBTmzWZEIIgEoVHRcPMZGdjKqLIoAIBSmdnK+RaX8md9GEwGYGwRZfah5zyywAtzLUzngnJ9DGwg21pLsKzbL0kZaBzTydEVioQl4gMpNsibvx1zQqPTih7ZRiXWDVvqGLJgNI6MmVFRCQvIOoMIfNYahpj1ZQlAIOZGBFMqNA1RtTqCZZIgTrASKRUzKnCTyVC6p/YjEK/iorUPYu6oQKzFDHBV4okA60yZYWMUGIaN2N0yD6YnsIo/6JpFvVEw6FcEQQyiSKJkx18iSkgIOtSkmBISfIqnEAqmj6eWGGo0pW+6v4YHOh4qQLaJ0QhlKlWfvUyUO+MdUAsw/cCkZ5IUTeJsHOfbd1MJrFJn7EOxoj0NIvGEk8sIVBixoipAmgvEbKcT0AHs1H4wvkbRDmYQyzcRbCVUuMr4IAAKRBYDwaHSJVRYEmBvAgMYiAA46FXVHhCSgOU6lb+FXfAS3ALZaB4tgLTdoRkVeDSuUMCxsdv/dZvwbHY78ytUjsQWDqWfIVMGIzADOeUI3nKSXOlMNQvUGNJADIPtOshyR2qMTLg8HWYGih4rGFavczUSsoASFsgZbFsdDkGz+MJ26DjdX+9SBt3QzLp88gcM5JETxN6KRucACZltjs4nEUGpMbUQ/mtlWJgpFLXTNUjGwF/Wyg8OM82A6mjY3MDkKonxhLhJJo6xCCpQVAC0xIY3wBTNDyY2lJY6RWmYdUGmKJT0cG6OFgpivIHWdy2elVfizrYNYVaLfrJ5kniUC1Z0CSAC/kFgYgMVL74EwV5Qc8DKhjZKLPZ2zLiFWxttDC4B+PSnGgqJK6UCsQyyAAP0d5oP8q/ME3dB34tEyWdaiQ1PTBopxtNteoKABCAghJi9JUjL0CJ8R/6BGDFuSQoYNqP4ii9qEXdgg8klElF0USUJzTSIOlSw8DQhShUJQFtdCoqAYmGLldRbA5qhzbMKDEpIMj0r3Ayio0E4QdhZhnyohKR8lSc4nBoQaCQHUkBY5lVqedVvpvyYB3Cz3AU5j9ZKwaGBIpB8VhEumqzxdpgHIJTCBgpYbSZ8WcmXFeNpcpJpvJYFblcHKswFXTAnzQTZouhGumklxNZTDVJgHU0W6gQntGpQESgPqlQabOKqeAQGgtVjylZgqk2TjilogCIBfoPYhbrbZOmR0Vj9xBACe0SmUIa439UN7xBLw2hVyKw7ZPUMp46PrYwG3xd1q8sJy3qgzZW5qMqj5RZYUX7hIcYX6IWJS9BB1kMYzHKoc+oEQaxgsgrSjxSANFDQ0IPwTF6DamUbdYZ/iRFjRKXiDRUXRZLrJV+afNlkkxJqDZJBzfziwgmxoFhAmUjUwxmBOFmGIjuoGpR+AvVFE9RjUO5VfHwoeGxhYWQKBikoWSKRKatIlJpmbpIJTD7N0ic7LAoVQlVgkUdlH8dVNMwkOwUidEJ5LgqPNUhdh9tQAefhoEwpa5x6MWgtMxQMqzP+AYdzW/91m8lWZ2jVGALoAI5SGoMnUE48EJyIYeo6OU74GEsUOCFY+FMiUjWvLJuGwfcSHXgj5sAEEUtKD7EDqCCqDIoomDKH+bHBxUCJ8vwAymgO5nyIQwVhzRUBAILm08IjAUJXeUXfn0hmVyBItgJAhVHUSpaMQxMu4CjhGQ8hXsJpkpLptDLABdWC0sSqEGOIGE0T/G8XipS0CPKJ3xos2AOSnAOykaPshlupD/VhD6jkZK1KhIcxZAsLI0cgxApiVANA6/aZgkJhqw+hYdJQQkf1hbAGHwCZBtToWyIxdjSZle0tFkaO4pKb7OQjOLHB+SVaY4nFS3jnwocVRF8pZnDovRqKHnR+ipa0USkHaFcKQatTOGjUq6IY80Kb925Uq/0kxABTKEBh7AIHT5WozKijapjelNajmTBUi6mzRB5RLFlCl4cakebp55QkzCoLQCvpIxiQ1JQNzQV2JF2CPtyPgXbIeE5FtRsRpdZL4koPAQTmglC4HXKwEPJWUOIvEC60UNV5hsaEbqYs+XkLcosSTGkQGvH+oMQqOChVZACyzEQ6ODG7JRKAUCY5CcuZArIuIGCZFG6MB+z5ZvdeEAVK55hAGoWqDFxIJkyQwXLsqkRJvBpDIqhMQVYj8D5SeCj2o/wCcekIVhZ2sCpS4gYvgIRD21DhQQQ0OCh+0hGvEIy0elfsjiCTIlIdqqHpFfQWt0shKENU3GMyyGMIIq8yBpKqWKmqxmmE26EvfGEXhBQDIydQacZ2YFEYCIHKIhOtWJZYxxQftZxYApIqWgLsCgtn5FAwqvA1COmHpRyDgjGTZm2y1opVeHR8aAHmJSQmiJfHhCgDAhoGjV1LdoLMlFpcC+kKZKpLGqQS07gQCrigx/8IBxIu1isRutHl33QSBaIPJ3VkbagTZrUoLInVPE2w6EzMPMmND2pJhoUjCoMLBqR3HllEILmjMlCMHygCBKAiF84xGqxiyvbYUW2nYEktSZ2sBQeeGkRNBMQZp5F5BWZIgCBDtXICDDtejMoVWmSPmKEgkELHEvJhWSIYj0txhmjaAyuSJulnXIGEAsIKC01qBIRB2wMIcBCgkQp7BSCD3KYRJBL8JLgA8PQgljFSrOiCcBXRaW6La91vK55Dm8deUgUjMGv/uqvxtZD4YEvLZ8mTfVzrjHEc/4QtqQSgkT5lV/5FYDDtGdRpRLokhQVgEAHL1mJXlSWAR8HNZERYggRj9VATSBZEKwwLsv8kCabhKkOEZXH0hghEwRQb/zSeikbwTgTkqqlbBIFXv+lX/olCsm5hSgMQQOmZ50hfI/JD2KoatiRZfesbwYBjGUIUT1jHKxNJX1aC7KSVW20XgQTR2jSAtm3h5TcbKoRwShd5BprXph7Q/TTvGk/VBntBHHPChesRXAQqlHbP/VTP4Vc4wxlvuJPk8CUpt4R9JgLpIYPRoACFsRIQdCgqbAQABpBDE+UOo0QuQkCiCFkMdkBcmHDU6mV7yAL9lFRmwg+UsbYoiQYxYyukynsTQsXDUST5mxlgnH2JidkKsyBhfrCnxqhuhF2VCLtnK3WMCoHzoGAKg/MDw4QwpGD2D0E5pfAtAvG/7fAdqEkUARHYXrTcCAW/QeBlIqJVWqKhSeIfiGZGvz1X/91xCVnpdKNkzaLHKfwWK4EhhvBAX5WBOKghdKRldqhM0F0fFCNtFlYnZYOD9BYsCooBjJ0HQOJenbluCkMhguyhWJzlAFyAyaEjdHZVBM8RouGEyQphAltFmXGKdgoDNosnECZCQkJEEKTBB/4AdAwgGBXZB1jfYolYGNMOnqTtA6YimrlFzlJ7rR01iQjNDabakQoIpEHMxozkUJSrRAOo2Jv4RZDTUimqKx/pmoQU5CsxJf6SouGBOQ5PVcq0YY5ogCWphExVAuY8An2KwBiLcHbAAg+SIyKDMnYsuZ16xQemWEgs3AOQIEV+5daxBCgDSOI8UemF5avqA8qAYbANKAaQFzamy0kthWw0k7gJ4QgYfDhFXaEpRgfQ74omWuLW8FX2JrmgfyFZA4j5xcOoBjUMQdLsmoLtVQ6O5ges4soqC74EkJgR17RAUgQFnHAHIrn4BLaEtNdOsikAO8CPmfU0gKLwlW6DGv9Ch+zwAQrFducnXDQKEqIuqBs1Jpq7UVTxu5Dh6FIUAlICuxicNNDwioQDkUAApI0HlE5CBegwAeSyZ1gnPbLoQQ0vIpQTd1Rm9hnZIfGon3CQsh0ckQ50VBX7T0j3EGGGkT8YSADCGxJCug59AQyQlUl9FJZLO5AQCBAUTkwAMigV7Ci0DRIf91A1PGpoJu2g46H37C6kP4slSRxXiEcBuZTaQamP0oXAWOLuhCFYasI8GTlLbCQLDKUwMgExeqoGfICdoZ/EBHYfIUCtILEqqQYeoE6yoN1zjnX0EgtUBLqi40TaoGlCq87GHsgJKqCaoUQqSOkHJxM4bFpGK7AdlGEEAAbiOEo+ByNiNRC4wICjAHVVLTq9Ou5VNyNCUVFYH7RqeXcauFMCKFqIJm2hg5bNVOaOS0XXsXEZKy7aDNHcGGeMhIAM9NgIRYfGiwPcAE7hqPww6rZrSNALebnOqKtLwq0UdM8yGWQhWAmLejlwMp0mW1WDGYsjQpTi06J3sODn6gS+to0IW6XwAJVrKOXitSQPiBOeOQm3IMPAgUdQ3YkS/3Z2p4evVJusqAWqXu4FrGI4iFlVBR8jOinXemGDOyCYUg5UcmEEUAADbZA7sAWEAJoEMXg8Dd8wzeQCANKtg4usbDIABnRSTOjoZI1zQwdz4iQpFkp6lZKB6qR4ICMpqEAyHdaNfYjq07QCtKNU3FpVHTHaWAM6MlST0wZbBoaAIKGagIWqk9/YAy6GugDaMQNewARSJIXEFHjGOCsX+dsDgiHfB1kle/6HOSFvU/FkQsCkV/aNpKCB3Gs1BXFwCajxqkpeqgUT7KDV2nMRIE5CQM/UJvIO7QdPVE8dZ7EDSFwAiwE+dQmuWMdEhjq4P+inL8+ulaKRRmoGgosDAzJAM4QHOyHJYEnrxIX5YTtD9SYXFS9CDtGqOjSwXUkAlZ6JYobRoWHJTBMTo0rVqc2oRcAaSk8sjZNx2elMm/cH6KoJsiku0mLgzRKRYcejoJL9Y4LgKDUqV9UAjoDSikhTZIqo+XCusSFn6lZRiaRPPAJ0kC3VAhP4sQVUQZLwDbwEttvAJnApLNxilZNAZKxU5GQ8BVVA3MKZyJj6YDqzIbmpl8LRUhmug2K58mClo51TlyMWswCarOwvoReECMiyBAFyUbDJzyMjYWKUlBMtWqx1xrAOg1krXE2GB7y4AN+SQfioY2nEBfYnTA0aXCxfSU6D9FhhZXaPHQRXR5FI4Eluw2SsI7olIQy80tcioFcKCw55YRqfvmqMBFCaAM4eIgOGjxFU1AFIyOi8EsUAgvVOFSArXEIyUK1lKGQar7C95STiiYMBcNNRCG5aDkFQAlMAFKQh4g8+EApYQhQmF3RBNfkSRZkJ/BKXlIXOryEgSiCUYBCBuYr0XlwrFpUPTDZrQTjmkhYa2DKoJMs2Cr8JTXCCPfiDyCCBjQqti+aKSFVYJULDh4JXzSvoklV3JMyLNZSqWoCFuFeqIBwoZqIApdFhsaQQstK5VQIE4V0pKIlwZWiVNyfrMsnGcaGIr2ERBe213mgsJBQKg/heQhAIgIOv4XhK+hzCxReBUtvkjIIGAQMAgYBg0CZCGyuOi2zECaYQcAgYBAwCBgENhsBo/A2G2GTvkHAIGAQMAhsCwSMwtsW1WAKYRAwCBgEDAKbjYBReJuNsEnfIGAQMAgYBLYFAkbhbYtqMIUwCBgEDAIGgc1GwCi8zUbYpG8QqBgCLOaWZdwVS9EkZBDYSwiYbQl7qbYNrTsZAbSdKj77lnjUq3EYBAwC5SBQ/Ggx9h5yrAO/NCrZNmtaVzlomjAGgc1DQFd4KhdL7xnNp+Awjj2GAI1CTjZg4z8H3KhDDFaCobjC47Qnjs7j1D60HUfI6AfhrJSQ8TcIGAQ2FYHSg5lG7W0q+Cbx7YkA2k7OHeWUO8775rhBdF6Jov5/ZKppPMb4l4wAAAAASUVORK5CYII=;" vertex="1" parent="1">
          <mxGeometry x="110" y="170" width="592" height="310" as="geometry" />
        </mxCell>
        <mxCell id="TIX_jKq0jUNadhzqx4YU-3" value="" style="endArrow=none;dashed=1;html=1;dashPattern=1 3;strokeWidth=2;rounded=0;" edge="1" parent="1">
          <mxGeometry width="50" height="50" relative="1" as="geometry">
            <mxPoint x="405" y="530" as="sourcePoint" />
            <mxPoint x="405" y="90" as="targetPoint" />
          </mxGeometry>
        </mxCell>
        <mxCell id="TIX_jKq0jUNadhzqx4YU-5" value="" style="endArrow=none;html=1;rounded=0;fillColor=#f8cecc;strokeColor=#b85450;" edge="1" parent="1">
          <mxGeometry width="50" height="50" relative="1" as="geometry">
            <mxPoint x="324" y="520" as="sourcePoint" />
            <mxPoint x="324" y="100" as="targetPoint" />
          </mxGeometry>
        </mxCell>
        <mxCell id="TIX_jKq0jUNadhzqx4YU-6" value="" style="endArrow=none;html=1;rounded=0;fillColor=#f8cecc;strokeColor=#b85450;" edge="1" parent="1">
          <mxGeometry width="50" height="50" relative="1" as="geometry">
            <mxPoint x="486" y="520" as="sourcePoint" />
            <mxPoint x="486" y="100" as="targetPoint" />
          </mxGeometry>
        </mxCell>
        <mxCell id="TIX_jKq0jUNadhzqx4YU-7" value="Sparsity / 2" style="text;html=1;align=center;verticalAlign=middle;whiteSpace=wrap;rounded=0;" vertex="1" parent="1">
          <mxGeometry x="330" y="100" width="60" height="30" as="geometry" />
        </mxCell>
        <mxCell id="TIX_jKq0jUNadhzqx4YU-8" value="Sparsity / 2" style="text;html=1;align=center;verticalAlign=middle;whiteSpace=wrap;rounded=0;" vertex="1" parent="1">
          <mxGeometry x="414" y="100" width="60" height="30" as="geometry" />
        </mxCell>
        <mxCell id="TIX_jKq0jUNadhzqx4YU-11" value="$$\text{Distribution.icdf}(0.5 + \frac{\text{sparsity}}{2}) $$" style="text;html=1;align=center;verticalAlign=middle;resizable=0;points=[];autosize=1;strokeColor=none;fillColor=none;" vertex="1" parent="1">
          <mxGeometry x="379" y="540" width="320" height="30" as="geometry" />
        </mxCell>
        <mxCell id="TIX_jKq0jUNadhzqx4YU-12" value="" style="endArrow=classic;html=1;rounded=0;" edge="1" parent="1" source="TIX_jKq0jUNadhzqx4YU-11">
          <mxGeometry width="50" height="50" relative="1" as="geometry">
            <mxPoint x="460" y="660" as="sourcePoint" />
            <mxPoint x="490" y="500" as="targetPoint" />
          </mxGeometry>
        </mxCell>
      </root>
    </mxGraphModel>
  </diagram>
</mxfile>
